<?xml version="1.0" encoding="UTF-8" standalone="no"?>
<svg
   fill-opacity="1"
   color-rendering="auto"
   color-interpolation="auto"
   text-rendering="auto"
   stroke="black"
   stroke-linecap="square"
   width="800"
   stroke-miterlimit="10"
   shape-rendering="auto"
   stroke-opacity="1"
   fill="black"
   stroke-dasharray="none"
   font-weight="normal"
   stroke-width="1"
   viewBox="120 120 800 150"
   height="150"
   font-family="'Dialog'"
   font-style="normal"
   stroke-linejoin="miter"
   font-size="12px"
   stroke-dashoffset="0"
   image-rendering="auto"
   version="1.1"
   id="svg17"
   sodipodi:docname="Lazy Dijkstra v1.svg"
   xmlns:inkscape="http://www.inkscape.org/namespaces/inkscape"
   xmlns:sodipodi="http://sodipodi.sourceforge.net/DTD/sodipodi-0.dtd"
   xmlns="http://www.w3.org/2000/svg"
   xmlns:svg="http://www.w3.org/2000/svg">
  <sodipodi:namedview
     id="namedview17"
     pagecolor="#ffffff"
     bordercolor="#000000"
     borderopacity="0.25"
     inkscape:showpageshadow="2"
     inkscape:pageopacity="0.0"
     inkscape:pagecheckerboard="0"
     inkscape:deskcolor="#d1d1d1"
     showgrid="false"
     inkscape:zoom="1.4778532"
     inkscape:cx="372.16146"
     inkscape:cy="131.2715"
     inkscape:window-width="1896"
     inkscape:window-height="1030"
     inkscape:window-maximized="1"
     inkscape:current-layer="svg17" />
  <!--Generated by the Batik Graphics2D SVG Generator-->
  <defs
     id="genericDefs">
    <defs
       id="defs1">
      <clipPath
         clipPathUnits="userSpaceOnUse"
         id="clipPath1">
        <path
           d="M0 0 L2147483647 0 L2147483647 2147483647 L0 2147483647 L0 0 Z"
           id="path1" />
      </clipPath>
      <clipPath
         clipPathUnits="userSpaceOnUse"
         id="clipPath2">
        <path
           d="M0 0 L0 100 L380 100 L380 0 Z"
           id="path2" />
      </clipPath>
      <clipPath
         clipPathUnits="userSpaceOnUse"
         id="clipPath3">
        <path
           d="M0 0 L0 100 L200 100 L200 0 Z"
           id="path3" />
      </clipPath>
      <clipPath
         clipPathUnits="userSpaceOnUse"
         id="clipPath4">
        <path
           d="M0 0 L0 40 L210 40 L210 0 Z"
           id="path4" />
      </clipPath>
    </defs>
  </defs>
  <g
     fill="#ffffff"
     fill-opacity="0"
     transform="translate(520,140)"
     stroke-opacity="0"
     stroke="#ffffff"
     id="g4">
    <path
       id="rect4"
       clip-path="url(#clipPath2)"
       style="stroke:none"
       d="M 0.5,0.5 H 379 V 99 H 0.5 Z" />
  </g>
  <g
     transform="translate(520,140)"
     id="g7">
    <path
       id="rect5"
       clip-path="url(#clipPath2)"
       style="fill:none;stroke:#ffffffff"
       d="M 0.5,0.5 H 379 V 99 H 0.5 Z" />
    <path
       d="M 174.14844,17.5312 V 7.8993641 h 7.30761 v 1.0664062 h -6.00195 v 3.0898437 h 5.5918 v 1.052734 h -5.5918 v 3.356446 h 6.28223 V 17.5312 Z m 13.80176,-1.189453 q -0.3418,0.710937 -0.90918,1.018555 -0.56055,0.307617 -1.39454,0.307617 -1.40136,0 -2.06445,-0.94336 -0.65625,-0.943359 -0.65625,-2.857422 0,-3.8691401 2.7207,-3.8691401 0.84082,0 1.40137,0.3076171 0.56055,0.307617 0.90235,0.977539 h 0.0137 l -0.0137,-0.827148 V 7.3866687 h 1.23046 v 8.6201173 q 0,1.155273 0.041,1.524414 h -1.17578 q -0.0205,-0.109375 -0.0478,-0.505859 -0.0205,-0.396485 -0.0205,-0.683594 z m -3.73243,-2.515625 q 0,1.551758 0.41016,2.22168 0.41016,0.669921 1.33301,0.669921 1.0459,0 1.51758,-0.724609 0.47168,-0.724609 0.47168,-2.249023 0,-1.469727 -0.47168,-2.153321 -0.47168,-0.683593 -1.50391,-0.683593 -0.92969,0 -1.34668,0.690429 -0.41016,0.683594 -0.41016,2.228516 z m 9.65235,6.610351 q -1.20996,0 -1.92774,-0.478515 -0.71777,-0.47168 -0.92285,-1.34668 l 1.23731,-0.177734 q 0.12304,0.512695 0.54003,0.786133 0.42383,0.280273 1.10743,0.280273 1.83886,0 1.83886,-2.15332 v -1.189453 h -0.0137 q -0.34863,0.710937 -0.95703,1.073242 -0.6084,0.355468 -1.42187,0.355468 -1.36036,0 -2.00293,-0.902343 -0.63575,-0.902344 -0.63575,-2.836914 0,-1.961914 0.6836,-2.891602 0.69043,-0.936523 2.09179,-0.936523 0.78614,0 1.36036,0.362304 0.58105,0.355469 0.8955,1.018555 h 0.0137 q 0,-0.205078 0.0273,-0.710937 0.0273,-0.50586 0.0547,-0.553711 h 1.16894 q -0.041,0.36914 -0.041,1.53125 v 5.65332 q 0,3.117187 -3.09668,3.117187 z m 1.87304,-6.603515 q 0,-0.902344 -0.24609,-1.551758 -0.24609,-0.65625 -0.69727,-0.998047 -0.44433,-0.348633 -1.01171,-0.348633 -0.94336,0 -1.37403,0.683594 -0.43066,0.683594 -0.43066,2.214844 0,1.517578 0.40332,2.180664 0.40332,0.663086 1.38086,0.663086 0.58105,0 1.03222,-0.341797 0.45118,-0.341797 0.69727,-0.977539 0.24609,-0.642578 0.24609,-1.524414 z m 4.05371,0.259765 q 0,1.271485 0.52637,1.961914 0.52637,0.69043 1.53809,0.69043 0.7998,0 1.27832,-0.321289 0.48535,-0.321289 0.65625,-0.813476 l 1.08008,0.307617 q -0.66309,1.75 -3.01465,1.75 -1.64063,0 -2.50196,-0.977539 -0.85449,-0.977539 -0.85449,-2.905274 0,-1.832031 0.85449,-2.80957 0.86133,-0.9775391 2.45411,-0.9775391 3.26074,0 3.26074,3.9306641 v 0.164062 z m 4.00586,-0.943359 q -0.10253,-1.168945 -0.59472,-1.702148 -0.49219,-0.540039 -1.41504,-0.540039 -0.89551,0 -1.42188,0.601562 -0.51953,0.594727 -0.56054,1.640625 z"
       id="text5"
       clip-path="url(#clipPath2)"
       style="font-size:14px;font-family:sans-serif;fill:#ffffffff;stroke:none"
       aria-label="Edge" />
    <path
       fill="none"
       d="M 1,23.5312 H 379"
       clip-path="url(#clipPath2)"
       id="path5"
       style="stroke:#ffffffff" />
    <path
       d="m 9.5869141,33.90625 v 2.925781 H 8.5820313 V 33.90625 H 5.6835937 v -0.998047 h 2.8984376 v -2.925781 h 1.0048828 v 2.925781 H 12.485352 V 33.90625 Z M 25.09082,38.0625 h -1.428711 l -1.291992,-5.229492 -0.246094,-1.155274 q -0.06152,0.307618 -0.191406,0.888672 -0.129883,0.574219 -1.394531,5.496094 h -1.421875 l -2.071289,-7.396484 h 1.216797 l 1.250976,5.024414 q 0.04785,0.164062 0.293946,1.353515 l 0.116211,-0.505859 1.544921,-5.87207 h 1.319336 l 1.291993,5.079101 0.314453,1.298828 0.211914,-0.950195 1.401367,-5.427734 h 1.203125 z m 3.97168,-3.438477 q 0,1.271485 0.526367,1.961914 0.526367,0.69043 1.538086,0.69043 0.799805,0 1.27832,-0.321289 0.485352,-0.321289 0.65625,-0.813476 l 1.080079,0.307617 q -0.663086,1.75 -3.014649,1.75 -1.640625,0 -2.501953,-0.977539 -0.854492,-0.977539 -0.854492,-2.905274 0,-1.832031 0.854492,-2.80957 0.861328,-0.977539 2.454102,-0.977539 3.260742,0 3.260742,3.930664 v 0.164062 z m 4.005859,-0.943359 q -0.102539,-1.168945 -0.594726,-1.702148 -0.492188,-0.540039 -1.415039,-0.540039 -0.895508,0 -1.421875,0.601562 -0.519532,0.594727 -0.560547,1.640625 z m 2.830078,-4.586914 v -1.175781 h 1.230469 v 1.175781 z m 0,8.96875 v -7.396484 h 1.230469 V 38.0625 Z m 5.919922,2.905273 q -1.209961,0 -1.927734,-0.478515 -0.717773,-0.47168 -0.922852,-1.34668 l 1.237305,-0.177734 q 0.123047,0.512695 0.540039,0.786133 0.423828,0.280273 1.107422,0.280273 1.838867,0 1.838867,-2.15332 v -1.189453 h -0.01367 q -0.348632,0.710937 -0.957031,1.073242 -0.608398,0.355468 -1.421875,0.355468 -1.360351,0 -2.00293,-0.902343 -0.635742,-0.902344 -0.635742,-2.836914 0,-1.961914 0.683594,-2.891602 0.69043,-0.936523 2.091797,-0.936523 0.786133,0 1.360351,0.362304 0.581055,0.355469 0.895508,1.018555 h 0.01367 q 0,-0.205078 0.02734,-0.710937 0.02734,-0.50586 0.05469,-0.553711 h 1.168946 q -0.04102,0.36914 -0.04102,1.53125 v 5.65332 q 0,3.117187 -3.09668,3.117187 z m 1.873047,-6.603515 q 0,-0.902344 -0.246094,-1.551758 -0.246093,-0.65625 -0.697265,-0.998047 -0.444336,-0.348633 -1.011719,-0.348633 -0.943359,0 -1.374023,0.683594 -0.430664,0.683594 -0.430664,2.214844 0,1.517578 0.40332,2.180664 0.40332,0.663086 1.380859,0.663086 0.581055,0 1.032227,-0.341797 0.451172,-0.341797 0.697265,-0.977539 0.246094,-0.642578 0.246094,-1.524414 z m 4.333985,-2.433594 q 0.396484,-0.724609 0.950195,-1.05957 0.560547,-0.341797 1.415039,-0.341797 1.203125,0 1.770508,0.601562 0.574219,0.594727 0.574219,2.00293 V 38.0625 h -1.237305 v -4.689453 q 0,-0.779297 -0.143555,-1.155274 -0.143555,-0.382812 -0.47168,-0.560546 -0.328125,-0.177735 -0.909179,-0.177735 -0.868164,0 -1.394531,0.601563 -0.519532,0.601562 -0.519532,1.620117 V 38.0625 H 46.829102 V 27.917969 h 1.230468 v 2.638672 q 0,0.416992 -0.02734,0.861328 -0.02051,0.444336 -0.02734,0.512695 z m 9.40625,6.077148 q -0.608399,0.164063 -1.244141,0.164063 -1.476563,0 -1.476563,-1.674805 v -4.935547 h -0.854492 v -0.895507 h 0.902344 l 0.362305,-1.654297 h 0.820312 v 1.654297 h 1.367188 v 0.895507 h -1.367188 v 4.668946 q 0,0.533203 0.170899,0.751953 0.177734,0.211914 0.608398,0.211914 0.246094,0 0.710938,-0.0957 z M 58.8125,32.081055 v -1.415039 h 1.333008 v 1.415039 z m 0,5.981445 v -1.415039 h 1.333008 V 38.0625 Z m 8.96875,-6.500977 V 38.0625 h -1.230469 v -6.500977 h -1.039062 v -0.895507 h 1.039062 v -0.833985 q 0,-1.011719 0.444336,-1.456054 0.444336,-0.444336 1.360352,-0.444336 0.512695,0 0.868164,0.08203 v 0.936523 q -0.307617,-0.05469 -0.546875,-0.05469 -0.47168,0 -0.683594,0.239258 -0.211914,0.239257 -0.211914,0.868164 v 0.663086 h 1.442383 v 0.895507 z M 70.146484,38.0625 V 27.917969 h 1.230469 V 38.0625 Z m 9.365235,-3.705078 q 0,1.941406 -0.854492,2.891601 -0.854493,0.950196 -2.481446,0.950196 -1.620117,0 -2.447265,-0.984375 -0.827149,-0.991211 -0.827149,-2.857422 0,-3.828125 3.31543,-3.828125 1.695312,0 2.495117,0.936523 0.799805,0.929688 0.799805,2.891602 z m -1.291992,0 q 0,-1.53125 -0.458008,-2.22168 -0.451172,-0.697265 -1.524414,-0.697265 -1.080078,0 -1.56543,0.710937 -0.478516,0.704102 -0.478516,2.208008 0,1.46289 0.47168,2.201172 0.478516,0.731445 1.49707,0.731445 1.107422,0 1.579102,-0.710937 0.478516,-0.710938 0.478516,-2.22168 z m 4.70996,3.841797 q -1.114257,0 -1.674804,-0.587891 -0.560547,-0.587891 -0.560547,-1.613281 0,-1.148438 0.751953,-1.763672 0.758789,-0.615234 2.44043,-0.65625 l 1.661133,-0.02734 v -0.40332 q 0,-0.902344 -0.382813,-1.291992 -0.382812,-0.389649 -1.203125,-0.389649 -0.827148,0 -1.203125,0.280274 -0.375977,0.280273 -0.451172,0.895508 l -1.285156,-0.116211 q 0.314453,-1.996094 2.966797,-1.996094 1.394531,0 2.098633,0.642578 0.704101,0.635742 0.704101,1.845703 v 3.185547 q 0,0.546875 0.143555,0.827148 0.143555,0.273438 0.546875,0.273438 0.177734,0 0.40332,-0.04785 v 0.765625 q -0.464844,0.109375 -0.950195,0.109375 -0.683594,0 -0.998047,-0.355468 -0.307617,-0.362305 -0.348633,-1.12793 h -0.04101 q -0.47168,0.847656 -1.100586,1.203125 -0.622071,0.348633 -1.517579,0.348633 z m 0.280274,-0.922852 q 0.676758,0 1.203125,-0.307617 0.526367,-0.307617 0.827148,-0.84082 0.307618,-0.540039 0.307618,-1.107422 v -0.608399 l -1.34668,0.02734 q -0.868164,0.01367 -1.319336,0.177734 -0.444336,0.164063 -0.683594,0.50586 -0.239258,0.341797 -0.239258,0.895508 0,0.601562 0.321289,0.929687 0.328125,0.328125 0.929688,0.328125 z m 8.462891,0.731445 q -0.608399,0.164063 -1.244141,0.164063 -1.476563,0 -1.476563,-1.674805 V 31.561523 H 88.097656 V 30.666016 H 89 l 0.362305,-1.654297 h 0.820312 v 1.654297 h 1.367188 v 0.895507 h -1.367188 v 4.668946 q 0,0.533203 0.170899,0.751953 0.177734,0.211914 0.608398,0.211914 0.246094,0 0.710938,-0.0957 z"
       id="text6"
       clip-path="url(#clipPath2)"
       style="font-size:14px;font-family:sans-serif;fill:#ffffffff;stroke:none"
       aria-label="+ weight: float" />
    <path
       fill="none"
       d="M 1,44.0625 H 379"
       clip-path="url(#clipPath2)"
       id="path6"
       style="stroke:#ffffffff" />
    <path
       d="m 9.5869141,54.43755 v 2.925781 H 8.5820313 V 54.43755 H 5.6835937 v -0.998047 h 2.8984376 v -2.925781 h 1.0048828 v 2.925781 h 2.8984379 v 0.998047 z m 8.6269529,4.15625 v -9.631836 h 7.307617 v 1.066406 h -6.001953 v 3.089844 h 5.591797 v 1.052734 h -5.591797 v 3.356446 h 6.282227 V 58.5938 Z m 13.801758,-1.189453 q -0.341797,0.710937 -0.90918,1.018555 -0.560547,0.307617 -1.394531,0.307617 -1.401367,0 -2.064453,-0.94336 -0.65625,-0.943359 -0.65625,-2.857421 0,-3.869141 2.720703,-3.869141 0.84082,0 1.401367,0.307617 0.560547,0.307617 0.902344,0.977539 h 0.01367 l -0.01367,-0.827148 v -3.069336 h 1.230469 v 8.620117 q 0,1.155273 0.04102,1.524414 h -1.175781 q -0.02051,-0.109375 -0.04785,-0.505859 -0.02051,-0.396485 -0.02051,-0.683594 z m -3.732422,-2.515625 q 0,1.551758 0.410156,2.22168 0.410157,0.669921 1.333008,0.669921 1.045899,0 1.517578,-0.724609 0.47168,-0.724609 0.47168,-2.249023 0,-1.469727 -0.47168,-2.153321 -0.471679,-0.683593 -1.503906,-0.683593 -0.929687,0 -1.34668,0.690429 -0.410156,0.683594 -0.410156,2.228516 z m 9.652344,6.610351 q -1.209961,0 -1.927735,-0.478515 -0.717773,-0.47168 -0.922851,-1.34668 l 1.237305,-0.177734 q 0.123046,0.512695 0.540039,0.786133 0.423828,0.280273 1.107422,0.280273 1.838867,0 1.838867,-2.15332 v -1.189453 h -0.01367 q -0.348633,0.710937 -0.957031,1.073242 -0.608399,0.355469 -1.421875,0.355469 -1.360352,0 -2.00293,-0.902344 -0.635742,-0.902344 -0.635742,-2.836914 0,-1.961914 0.683593,-2.891602 0.69043,-0.936523 2.091797,-0.936523 0.786133,0 1.360352,0.362304 0.581055,0.355469 0.895508,1.018555 h 0.01367 q 0,-0.205078 0.02734,-0.710937 0.02734,-0.50586 0.05469,-0.553711 h 1.168945 q -0.04102,0.36914 -0.04102,1.53125 v 5.65332 q 0,3.117187 -3.09668,3.117187 z m 1.873047,-6.603515 q 0,-0.902344 -0.246094,-1.551758 -0.246094,-0.65625 -0.697266,-0.998047 -0.444336,-0.348633 -1.011718,-0.348633 -0.94336,0 -1.374024,0.683594 -0.430664,0.683594 -0.430664,2.214844 0,1.517578 0.40332,2.180664 0.403321,0.663086 1.38086,0.663086 0.581054,0 1.032226,-0.341797 0.451172,-0.341797 0.697266,-0.977539 0.246094,-0.642578 0.246094,-1.524414 z m 4.053711,0.259765 q 0,1.271485 0.526367,1.961915 0.526367,0.690429 1.538086,0.690429 0.799804,0 1.27832,-0.321289 0.485352,-0.321289 0.65625,-0.813476 l 1.080078,0.307617 q -0.663086,1.75 -3.014648,1.75 -1.640625,0 -2.501953,-0.977539 -0.854493,-0.977539 -0.854493,-2.905274 0,-1.832031 0.854493,-2.80957 0.861328,-0.977539 2.454101,-0.977539 3.260742,0 3.260742,3.930664 v 0.164062 z m 4.005859,-0.943359 q -0.102539,-1.168945 -0.594727,-1.702148 -0.492187,-0.540039 -1.415039,-0.540039 -0.895507,0 -1.421875,0.601562 -0.519531,0.594727 -0.560546,1.640625 z m 2.761719,0.745117 q 0,-1.975586 0.615234,-3.547851 0.62207,-1.572266 1.907227,-2.959961 h 1.189453 q -1.27832,1.421875 -1.879883,3.021484 -0.594727,1.59961 -0.594727,3.5 0,1.893555 0.587891,3.486328 0.594727,1.592774 1.886719,3.035157 h -1.189453 q -1.291992,-1.394532 -1.907227,-2.966797 -0.615234,-1.579102 -0.615234,-3.541016 z m 10.288086,1.592774 q 0,1.045898 -0.792969,1.613281 -0.786133,0.567383 -2.208008,0.567383 -1.380859,0 -2.132812,-0.451172 -0.745118,-0.458008 -0.970703,-1.421875 l 1.086914,-0.211914 q 0.157226,0.594726 0.649414,0.875 0.492187,0.273437 1.367187,0.273437 0.936524,0 1.367188,-0.287109 0.4375,-0.287109 0.4375,-0.861328 0,-0.4375 -0.300782,-0.710938 -0.300781,-0.273437 -0.970703,-0.451172 l -0.881836,-0.232421 q -1.05957,-0.273438 -1.510742,-0.533204 -0.444336,-0.266601 -0.697265,-0.642578 -0.25293,-0.375976 -0.25293,-0.922851 0,-1.011719 0.717773,-1.538086 0.72461,-0.533203 2.105469,-0.533203 1.223633,0 1.941406,0.430664 0.72461,0.430664 0.916016,1.380859 l -1.107422,0.136719 q -0.102539,-0.492188 -0.553711,-0.751953 -0.444336,-0.266602 -1.196289,-0.266602 -0.833984,0 -1.230469,0.25293 -0.396484,0.25293 -0.396484,0.765625 0,0.314453 0.164062,0.519531 0.164063,0.205078 0.485352,0.348633 0.321289,0.143555 1.353516,0.396484 0.977539,0.246094 1.408203,0.458008 0.430664,0.205078 0.676758,0.458008 0.252929,0.25293 0.389648,0.587891 0.136719,0.328125 0.136719,0.751953 z m 4.292968,1.989258 q -0.608398,0.164062 -1.24414,0.164062 -1.476563,0 -1.476563,-1.674805 v -4.935547 h -0.854492 v -0.895507 h 0.902344 l 0.362305,-1.654297 h 0.820312 v 1.654297 h 1.367188 v 0.895507 h -1.367188 v 4.668946 q 0,0.533203 0.170899,0.751953 0.177734,0.211914 0.608398,0.211914 0.246094,0 0.710937,-0.0957 z m 2.932618,0.191406 q -1.114258,0 -1.674805,-0.587891 -0.560547,-0.58789 -0.560547,-1.613281 0,-1.148438 0.751953,-1.763672 0.758789,-0.615234 2.44043,-0.65625 l 1.661133,-0.02734 v -0.40332 q 0,-0.902344 -0.382813,-1.291992 -0.382812,-0.389649 -1.203125,-0.389649 -0.827148,0 -1.203125,0.280274 -0.375976,0.280273 -0.451172,0.895508 l -1.285156,-0.116211 q 0.314453,-1.996094 2.966797,-1.996094 1.394531,0 2.098633,0.642578 0.704101,0.635742 0.704101,1.845703 v 3.185547 q 0,0.546875 0.143555,0.827148 0.143555,0.273438 0.546875,0.273438 0.177734,0 0.40332,-0.04785 v 0.765625 q -0.464843,0.109375 -0.950195,0.109375 -0.683594,0 -0.998047,-0.355468 -0.307617,-0.362305 -0.348633,-1.12793 h -0.04102 q -0.47168,0.847656 -1.100586,1.203125 -0.622071,0.348633 -1.517578,0.348633 z m 0.280273,-0.922852 q 0.676758,0 1.203125,-0.307617 0.526367,-0.307617 0.827149,-0.84082 0.307617,-0.540039 0.307617,-1.107422 v -0.608399 l -1.34668,0.02734 q -0.868164,0.01367 -1.319336,0.177735 -0.444336,0.164062 -0.683594,0.505859 -0.239257,0.341797 -0.239257,0.895508 0,0.601562 0.321289,0.929687 0.328125,0.328125 0.929687,0.328125 z m 5.646484,0.786133 v -5.673828 q 0,-0.779297 -0.04102,-1.722656 h 1.162109 q 0.05469,1.257812 0.05469,1.510742 h 0.02734 q 0.293946,-0.950195 0.676758,-1.298828 0.382813,-0.348633 1.080078,-0.348633 0.246094,0 0.499024,0.06836 v 1.12793 q -0.246094,-0.06836 -0.65625,-0.06836 -0.765625,0 -1.168945,0.663086 -0.403321,0.65625 -0.403321,1.886718 V 58.5938 Z m 7.478516,-0.05469 q -0.608398,0.164062 -1.244141,0.164062 -1.476562,0 -1.476562,-1.674805 v -4.935547 h -0.854492 v -0.895507 h 0.902344 l 0.362304,-1.654297 h 0.820313 v 1.654297 h 1.367187 v 0.895507 h -1.367187 v 4.668946 q 0,0.533203 0.170898,0.751953 0.177735,0.211914 0.608399,0.211914 0.246093,0 0.710937,-0.0957 z m 1.380859,-5.926758 v -1.415039 h 1.333008 v 1.415039 z m 0,5.981445 v -1.415039 h 1.333008 V 58.5938 Z m 11.84668,0 h -1.353515 l -3.930665,-9.631836 h 1.374024 l 2.666016,6.78125 0.574218,1.702149 0.574219,-1.702149 2.652344,-6.78125 h 1.374023 z m 5.106445,-3.438477 q 0,1.271485 0.526368,1.961915 0.52637,0.690429 1.53809,0.690429 0.7998,0 1.27832,-0.321289 0.48535,-0.321289 0.65625,-0.813476 l 1.08007,0.307617 q -0.66308,1.75 -3.01464,1.75 -1.64063,0 -2.501958,-0.977539 -0.854492,-0.977539 -0.854492,-2.905274 0,-1.832031 0.854492,-2.80957 0.861328,-0.977539 2.454098,-0.977539 3.26075,0 3.26075,3.930664 v 0.164062 z m 4.005858,-0.943359 q -0.10254,-1.168945 -0.59472,-1.702148 -0.49219,-0.540039 -1.41504,-0.540039 -0.89551,0 -1.42188,0.601562 -0.51953,0.594727 -0.560546,1.640625 z m 2.86426,4.381836 v -5.673828 q 0,-0.779297 -0.041,-1.722656 h 1.16211 q 0.0547,1.257812 0.0547,1.510742 h 0.0273 q 0.29395,-0.950195 0.67676,-1.298828 0.38282,-0.348633 1.08008,-0.348633 0.24609,0 0.49902,0.06836 v 1.12793 q -0.24609,-0.06836 -0.65625,-0.06836 -0.76562,0 -1.16894,0.663086 -0.40332,0.65625 -0.40332,1.886718 V 58.5938 Z m 7.47852,-0.05469 q -0.6084,0.164062 -1.24415,0.164062 -1.47656,0 -1.47656,-1.674805 v -4.935547 h -0.85449 v -0.895507 h 0.90234 l 0.36231,-1.654297 h 0.82031 v 1.654297 h 1.36719 v 0.895507 h -1.36719 v 4.668946 q 0,0.533203 0.1709,0.751953 0.17773,0.211914 0.6084,0.211914 0.24609,0 0.71094,-0.0957 z m 1.98925,-3.38379 q 0,1.271485 0.52637,1.961915 0.52637,0.690429 1.53809,0.690429 0.7998,0 1.27832,-0.321289 0.48535,-0.321289 0.65625,-0.813476 l 1.08007,0.307617 q -0.66308,1.75 -3.01464,1.75 -1.64063,0 -2.50196,-0.977539 -0.85449,-0.977539 -0.85449,-2.905274 0,-1.832031 0.85449,-2.80957 0.86133,-0.977539 2.4541,-0.977539 3.26075,0 3.26075,3.930664 v 0.164062 z m 4.00586,-0.943359 q -0.10254,-1.168945 -0.59472,-1.702148 -0.49219,-0.540039 -1.41504,-0.540039 -0.89551,0 -1.42188,0.601562 -0.51953,0.594727 -0.56054,1.640625 z m 7.36914,4.381836 -1.98925,-3.035156 -2.00293,3.035156 h -1.32618 l 2.63184,-3.800781 -2.50879,-3.595703 h 1.36035 l 1.84571,2.877929 1.83203,-2.877929 h 1.37402 l -2.50879,3.582031 2.66602,3.814453 z m 4.15625,-1.49707 v 1.148437 q 0,0.72461 -0.12988,1.209961 -0.12988,0.485352 -0.40332,0.929688 h -0.84082 q 0.64258,-0.929688 0.64258,-1.791016 h -0.60156 v -1.49707 z m 8.93457,1.442383 q -0.6084,0.164062 -1.24414,0.164062 -1.47656,0 -1.47656,-1.674805 v -4.935547 h -0.85449 v -0.895507 h 0.90234 l 0.36231,-1.654297 h 0.82031 v 1.654297 h 1.36719 v 0.895507 h -1.36719 v 4.668946 q 0,0.533203 0.1709,0.751953 0.17773,0.211914 0.6084,0.211914 0.24609,0 0.71093,-0.0957 z m 7.30078,-3.650391 q 0,1.941406 -0.85449,2.891601 -0.85449,0.950196 -2.48144,0.950196 -1.62012,0 -2.44727,-0.984375 -0.82715,-0.991211 -0.82715,-2.857422 0,-3.828125 3.31543,-3.828125 1.69532,0 2.49512,0.936523 0.7998,0.929688 0.7998,2.891602 z m -1.29199,0 q 0,-1.53125 -0.45801,-2.22168 -0.45117,-0.697265 -1.52441,-0.697265 -1.08008,0 -1.56543,0.710937 -0.47851,0.704102 -0.47851,2.208008 0,1.462891 0.47167,2.201172 0.47852,0.731445 1.49708,0.731445 1.10742,0 1.5791,-0.710937 0.47851,-0.710938 0.47851,-2.22168 z m 3.15821,-2.276367 v -1.415039 h 1.333 v 1.415039 z m 0,5.981445 v -1.415039 h 1.333 V 58.5938 Z m 11.84668,0 h -1.35352 l -3.93066,-9.631836 h 1.37402 l 2.66601,6.78125 0.57422,1.702149 0.57422,-1.702149 2.65235,-6.78125 h 1.37402 z m 5.10644,-3.438477 q 0,1.271485 0.52637,1.961915 0.52636,0.690429 1.53808,0.690429 0.79981,0 1.27832,-0.321289 0.48536,-0.321289 0.65625,-0.813476 l 1.08008,0.307617 q -0.66308,1.75 -3.01465,1.75 -1.64062,0 -2.50195,-0.977539 -0.85449,-0.977539 -0.85449,-2.905274 0,-1.832031 0.85449,-2.80957 0.86133,-0.977539 2.4541,-0.977539 3.26074,0 3.26074,3.930664 v 0.164062 z m 4.00586,-0.943359 q -0.10254,-1.168945 -0.59473,-1.702148 -0.49218,-0.540039 -1.41504,-0.540039 -0.8955,0 -1.42187,0.601562 -0.51953,0.594727 -0.56055,1.640625 z m 2.86426,4.381836 v -5.673828 q 0,-0.779297 -0.041,-1.722656 h 1.16211 q 0.0547,1.257812 0.0547,1.510742 h 0.0273 q 0.29395,-0.950195 0.67676,-1.298828 0.38281,-0.348633 1.08008,-0.348633 0.24609,0 0.49902,0.06836 v 1.12793 q -0.24609,-0.06836 -0.65625,-0.06836 -0.76562,0 -1.16894,0.663086 -0.40332,0.65625 -0.40332,1.886718 V 58.5938 Z m 7.47851,-0.05469 q -0.6084,0.164062 -1.24414,0.164062 -1.47656,0 -1.47656,-1.674805 v -4.935547 h -0.85449 v -0.895507 h 0.90234 l 0.36231,-1.654297 h 0.82031 v 1.654297 h 1.36719 v 0.895507 h -1.36719 v 4.668946 q 0,0.533203 0.1709,0.751953 0.17773,0.211914 0.6084,0.211914 0.24609,0 0.71093,-0.0957 z m 1.98926,-3.38379 q 0,1.271485 0.52637,1.961915 0.52637,0.690429 1.53808,0.690429 0.79981,0 1.27832,-0.321289 0.48536,-0.321289 0.65625,-0.813476 l 1.08008,0.307617 q -0.66308,1.75 -3.01465,1.75 -1.64062,0 -2.50195,-0.977539 -0.85449,-0.977539 -0.85449,-2.905274 0,-1.832031 0.85449,-2.80957 0.86133,-0.977539 2.4541,-0.977539 3.26074,0 3.26074,3.930664 v 0.164062 z m 4.00586,-0.943359 q -0.10254,-1.168945 -0.59473,-1.702148 -0.49218,-0.540039 -1.41504,-0.540039 -0.8955,0 -1.42187,0.601562 -0.51953,0.594727 -0.56055,1.640625 z m 7.36914,4.381836 -1.98926,-3.035156 -2.00293,3.035156 h -1.32617 l 2.63184,-3.800781 -2.50879,-3.595703 h 1.36035 l 1.8457,2.877929 1.83203,-2.877929 h 1.37403 l -2.50879,3.582031 2.66601,3.814453 z m 4.15625,-1.49707 v 1.148437 q 0,0.72461 -0.12988,1.209961 -0.12988,0.485352 -0.40332,0.929688 h -0.84082 q 0.64258,-0.929688 0.64258,-1.791016 h -0.60157 v -1.49707 z m 13.17285,1.49707 h -1.42871 l -1.29199,-5.229492 -0.24609,-1.155274 q -0.0615,0.307618 -0.19141,0.888672 -0.12988,0.574219 -1.39453,5.496094 h -1.42188 l -2.07129,-7.396484 h 1.2168 l 1.25098,5.024414 q 0.0479,0.164062 0.29394,1.353515 l 0.11621,-0.505859 1.54493,-5.87207 h 1.31933 l 1.29199,5.079101 0.31446,1.298828 0.21191,-0.950195 1.40137,-5.427734 h 1.20312 z m 3.97168,-3.438477 q 0,1.271485 0.52637,1.961915 0.52637,0.690429 1.53809,0.690429 0.7998,0 1.27832,-0.321289 0.48535,-0.321289 0.65625,-0.813476 l 1.08007,0.307617 q -0.66308,1.75 -3.01464,1.75 -1.64063,0 -2.50196,-0.977539 -0.85449,-0.977539 -0.85449,-2.905274 0,-1.832031 0.85449,-2.80957 0.86133,-0.977539 2.4541,-0.977539 3.26075,0 3.26075,3.930664 v 0.164062 z m 4.00586,-0.943359 q -0.10254,-1.168945 -0.59472,-1.702148 -0.49219,-0.540039 -1.41504,-0.540039 -0.89551,0 -1.42188,0.601562 -0.51953,0.594727 -0.56055,1.640625 z m 2.83008,-4.586914 v -1.175781 h 1.23047 v 1.175781 z m 0,8.96875 v -7.396484 h 1.23047 V 58.5938 Z m 5.91992,2.905273 q -1.20996,0 -1.92773,-0.478515 -0.71778,-0.47168 -0.92285,-1.34668 l 1.2373,-0.177734 q 0.12305,0.512695 0.54004,0.786133 0.42383,0.280273 1.10742,0.280273 1.83887,0 1.83887,-2.15332 v -1.189453 h -0.0137 q -0.34864,0.710937 -0.95703,1.073242 -0.6084,0.355469 -1.42188,0.355469 -1.36035,0 -2.00293,-0.902344 -0.63574,-0.902344 -0.63574,-2.836914 0,-1.961914 0.68359,-2.891602 0.69043,-0.936523 2.0918,-0.936523 0.78613,0 1.36035,0.362304 0.58106,0.355469 0.89551,1.018555 h 0.0137 q 0,-0.205078 0.0273,-0.710937 0.0274,-0.50586 0.0547,-0.553711 h 1.16895 q -0.041,0.36914 -0.041,1.53125 v 5.65332 q 0,3.117187 -3.09668,3.117187 z m 1.87305,-6.603515 q 0,-0.902344 -0.2461,-1.551758 -0.24609,-0.65625 -0.69726,-0.998047 -0.44434,-0.348633 -1.01172,-0.348633 -0.94336,0 -1.37402,0.683594 -0.43067,0.683594 -0.43067,2.214844 0,1.517578 0.40332,2.180664 0.40332,0.663086 1.38086,0.663086 0.58106,0 1.03223,-0.341797 0.45117,-0.341797 0.69726,-0.977539 0.2461,-0.642578 0.2461,-1.524414 z m 4.33398,-2.433594 q 0.39649,-0.724609 0.9502,-1.05957 0.56055,-0.341797 1.41504,-0.341797 1.20312,0 1.77051,0.601562 0.57421,0.594727 0.57421,2.00293 V 58.5938 h -1.2373 v -4.689453 q 0,-0.779297 -0.14356,-1.155274 -0.14355,-0.382812 -0.47168,-0.560546 -0.32812,-0.177735 -0.90917,-0.177735 -0.86817,0 -1.39454,0.601563 -0.51953,0.601562 -0.51953,1.620117 V 58.5938 h -1.23047 V 48.449269 h 1.23047 v 2.638672 q 0,0.416992 -0.0273,0.861328 -0.0205,0.444336 -0.0273,0.512695 z m 9.40625,6.077149 q -0.6084,0.164062 -1.24414,0.164062 -1.47656,0 -1.47656,-1.674805 v -4.935547 h -0.85449 v -0.895507 h 0.90234 l 0.36231,-1.654297 h 0.82031 v 1.654297 h 1.36719 v 0.895507 h -1.36719 v 4.668946 q 0,0.533203 0.1709,0.751953 0.17773,0.211914 0.6084,0.211914 0.24609,0 0.71093,-0.0957 z m 1.38086,-5.926758 v -1.415039 h 1.33301 v 1.415039 z m 0,5.981445 v -1.415039 h 1.33301 V 58.5938 Z m 8.96875,-6.500977 V 58.5938 h -1.23047 v -6.500977 h -1.03906 v -0.895507 h 1.03906 v -0.833985 q 0,-1.011718 0.44434,-1.456054 0.44434,-0.444336 1.36035,-0.444336 0.5127,0 0.86817,0.08203 v 0.936523 q -0.30762,-0.05469 -0.54688,-0.05469 -0.47168,0 -0.68359,0.239258 -0.21192,0.239257 -0.21192,0.868164 v 0.663086 h 1.44239 v 0.895507 z M 256.9043,58.5938 V 48.449269 h 1.23047 V 58.5938 Z m 9.36523,-3.705078 q 0,1.941406 -0.85449,2.891601 -0.85449,0.950196 -2.48145,0.950196 -1.62011,0 -2.44726,-0.984375 -0.82715,-0.991211 -0.82715,-2.857422 0,-3.828125 3.31543,-3.828125 1.69531,0 2.49512,0.936523 0.7998,0.929688 0.7998,2.891602 z m -1.29199,0 q 0,-1.53125 -0.45801,-2.22168 -0.45117,-0.697265 -1.52441,-0.697265 -1.08008,0 -1.56543,0.710937 -0.47852,0.704102 -0.47852,2.208008 0,1.462891 0.47168,2.201172 0.47852,0.731445 1.49707,0.731445 1.10742,0 1.5791,-0.710937 0.47852,-0.710938 0.47852,-2.22168 z m 4.70996,3.841797 q -1.11426,0 -1.6748,-0.587891 -0.56055,-0.58789 -0.56055,-1.613281 0,-1.148438 0.75195,-1.763672 0.75879,-0.615234 2.44043,-0.65625 l 1.66113,-0.02734 v -0.40332 q 0,-0.902344 -0.38281,-1.291992 -0.38281,-0.389649 -1.20312,-0.389649 -0.82715,0 -1.20313,0.280274 -0.37598,0.280273 -0.45117,0.895508 l -1.28516,-0.116211 q 0.31446,-1.996094 2.9668,-1.996094 1.39453,0 2.09863,0.642578 0.7041,0.635742 0.7041,1.845703 v 3.185547 q 0,0.546875 0.14356,0.827148 0.14355,0.273438 0.54687,0.273438 0.17774,0 0.40332,-0.04785 v 0.765625 q -0.46484,0.109375 -0.95019,0.109375 -0.68359,0 -0.99805,-0.355468 -0.30761,-0.362305 -0.34863,-1.12793 h -0.041 q -0.47168,0.847656 -1.10058,1.203125 -0.62207,0.348633 -1.51758,0.348633 z m 0.28027,-0.922852 q 0.67676,0 1.20313,-0.307617 0.52637,-0.307617 0.82715,-0.84082 0.30761,-0.540039 0.30761,-1.107422 v -0.608399 l -1.34668,0.02734 q -0.86816,0.01367 -1.31933,0.177735 -0.44434,0.164062 -0.6836,0.505859 -0.23925,0.341797 -0.23925,0.895508 0,0.601562 0.32129,0.929687 0.32812,0.328125 0.92968,0.328125 z m 8.46289,0.731446 q -0.60839,0.164062 -1.24414,0.164062 -1.47656,0 -1.47656,-1.674805 v -4.935547 h -0.85449 v -0.895507 h 0.90234 l 0.36231,-1.654297 h 0.82031 v 1.654297 h 1.36719 v 0.895507 h -1.36719 v 4.668946 q 0,0.533203 0.1709,0.751953 0.17773,0.211914 0.6084,0.211914 0.24609,0 0.71093,-0.0957 z m 3.89649,-3.554688 q 0,1.975586 -0.62207,3.547852 -0.61524,1.572265 -1.90039,2.959961 h -1.18946 q 1.28516,-1.435547 1.87989,-3.021485 0.59472,-1.592773 0.59472,-3.5 0,-1.907226 -0.60156,-3.5 -0.59473,-1.592773 -1.87305,-3.021484 h 1.18946 q 1.29199,1.394531 1.90722,2.973633 0.61524,1.572265 0.61524,3.534179 z m 10.81445,2.645508 -2.31055,-2.495117 v -0.430664 l 2.31055,-2.536133 h 1.14844 v 0.211914 l -2.31055,2.542969 2.32422,2.508789 v 0.198242 z m -3.19238,0 -2.29688,-2.495117 v -0.430664 l 2.29688,-2.536133 h 1.1416 v 0.211914 l -2.29004,2.542969 2.30371,2.508789 v 0.198242 z m 6.80176,-2.768555 q 0,1.476563 0.46484,2.1875 0.46484,0.710938 1.40137,0.710938 0.65625,0 1.09375,-0.355469 0.44433,-0.355469 0.54687,-1.09375 l 1.24414,0.08203 q -0.14355,1.066406 -0.90918,1.702149 -0.76562,0.635742 -1.9414,0.635742 -1.55176,0 -2.37207,-0.977539 -0.81348,-0.984375 -0.81348,-2.864258 0,-1.866211 0.82031,-2.84375 0.82032,-0.984375 2.35157,-0.984375 1.13476,0 1.87988,0.587891 0.75195,0.58789 0.94336,1.620117 l -1.26465,0.0957 q -0.0957,-0.615235 -0.48535,-0.977539 -0.38965,-0.362305 -1.10742,-0.362305 -0.97754,0 -1.41504,0.649414 -0.4375,0.649414 -0.4375,2.1875 z m 12.31836,0.02734 q 0,1.941406 -0.8545,2.891601 -0.85449,0.950196 -2.48144,0.950196 -1.62012,0 -2.44727,-0.984375 -0.82715,-0.991211 -0.82715,-2.857422 0,-3.828125 3.31543,-3.828125 1.69532,0 2.49512,0.936523 0.79981,0.929688 0.79981,2.891602 z m -1.292,0 q 0,-1.53125 -0.458,-2.22168 -0.45118,-0.697265 -1.52442,-0.697265 -1.08008,0 -1.56543,0.710937 -0.47851,0.704102 -0.47851,2.208008 0,1.462891 0.47168,2.201172 0.47851,0.731445 1.49707,0.731445 1.10742,0 1.5791,-0.710937 0.47851,-0.710938 0.47851,-2.22168 z m 7.51953,3.705078 v -4.689453 q 0,-0.731445 -0.14355,-1.134766 -0.14355,-0.40332 -0.45801,-0.581054 -0.31445,-0.177735 -0.92285,-0.177735 -0.88867,0 -1.40137,0.608399 -0.51269,0.608398 -0.51269,1.688476 V 58.5938 h -1.23047 v -5.817383 q 0,-1.291992 -0.041,-1.579101 h 1.16211 q 0.007,0.03418 0.0137,0.18457 0.007,0.150391 0.0137,0.348633 0.0137,0.191406 0.0273,0.731445 h 0.0205 q 0.42383,-0.765625 0.97754,-1.080078 0.56054,-0.321289 1.38769,-0.321289 1.2168,0 1.77735,0.608398 0.56738,0.601563 0.56738,1.996094 V 58.5938 Z m 8.64063,-2.043945 q 0,1.045898 -0.79297,1.613281 -0.78613,0.567383 -2.20801,0.567383 -1.38086,0 -2.13281,-0.451172 -0.74512,-0.458008 -0.9707,-1.421875 l 1.08691,-0.211914 q 0.15723,0.594726 0.64942,0.875 0.49218,0.273437 1.36718,0.273437 0.93653,0 1.36719,-0.287109 0.4375,-0.287109 0.4375,-0.861328 0,-0.4375 -0.30078,-0.710938 -0.30078,-0.273437 -0.9707,-0.451172 l -0.88184,-0.232421 q -1.05957,-0.273438 -1.51074,-0.533204 -0.44434,-0.266601 -0.69727,-0.642578 -0.25293,-0.375976 -0.25293,-0.922851 0,-1.011719 0.71778,-1.538086 0.72461,-0.533203 2.10547,-0.533203 1.22363,0 1.9414,0.430664 0.72461,0.430664 0.91602,1.380859 l -1.10742,0.136719 q -0.10254,-0.492188 -0.55372,-0.751953 -0.44433,-0.266602 -1.19628,-0.266602 -0.83399,0 -1.23047,0.25293 -0.39649,0.25293 -0.39649,0.765625 0,0.314453 0.16406,0.519531 0.16407,0.205078 0.48536,0.348633 0.32129,0.143555 1.35351,0.396484 0.97754,0.246094 1.4082,0.458008 0.43067,0.205078 0.67676,0.458008 0.25293,0.25293 0.38965,0.587891 0.13672,0.328125 0.13672,0.751953 z m 4.29297,1.989258 q -0.6084,0.164062 -1.24414,0.164062 -1.47656,0 -1.47656,-1.674805 v -4.935547 h -0.8545 v -0.895507 h 0.90235 l 0.3623,-1.654297 h 0.82031 v 1.654297 h 1.36719 v 0.895507 h -1.36719 v 4.668946 q 0,0.533203 0.1709,0.751953 0.17774,0.211914 0.6084,0.211914 0.24609,0 0.71094,-0.0957 z m 1.07324,0.05469 v -5.673828 q 0,-0.779297 -0.041,-1.722656 h 1.1621 q 0.0547,1.257812 0.0547,1.510742 h 0.0274 q 0.29394,-0.950195 0.67675,-1.298828 0.38282,-0.348633 1.08008,-0.348633 0.2461,0 0.49903,0.06836 v 1.12793 q -0.2461,-0.06836 -0.65625,-0.06836 -0.76563,0 -1.16895,0.663086 -0.40332,0.65625 -0.40332,1.886718 V 58.5938 Z m 5.83789,-7.396484 v 4.689453 q 0,0.731445 0.14356,1.134765 0.14355,0.403321 0.458,0.581055 0.31446,0.177734 0.92286,0.177734 0.88867,0 1.40136,-0.608398 0.5127,-0.608398 0.5127,-1.688477 v -4.286132 h 1.23047 v 5.817382 q 0,1.291993 0.041,1.579102 h -1.16211 q -0.007,-0.03418 -0.0137,-0.18457 -0.007,-0.150391 -0.0205,-0.341797 -0.007,-0.198242 -0.0205,-0.738281 h -0.0205 q -0.42383,0.765625 -0.98438,1.086914 -0.55371,0.314453 -1.38086,0.314453 -1.21679,0 -1.78418,-0.601563 -0.56054,-0.608398 -0.56054,-2.002929 v -4.928711 z m 7.51953,3.664062 q 0,1.476563 0.46485,2.1875 0.46484,0.710938 1.40136,0.710938 0.65625,0 1.09375,-0.355469 0.44434,-0.355469 0.54688,-1.09375 l 1.24414,0.08203 q -0.14356,1.066406 -0.90918,1.702149 -0.76563,0.635742 -1.94141,0.635742 -1.55175,0 -2.37207,-0.977539 -0.81347,-0.984375 -0.81347,-2.864258 0,-1.866211 0.82031,-2.84375 0.82031,-0.984375 2.35156,-0.984375 1.13477,0 1.87988,0.587891 0.75196,0.58789 0.94336,1.620117 l -1.26464,0.0957 q -0.0957,-0.615235 -0.48536,-0.977539 -0.38964,-0.362305 -1.10742,-0.362305 -0.97754,0 -1.41504,0.649414 -0.4375,0.649414 -0.4375,2.1875 z m 8.90723,3.677735 q -0.6084,0.164062 -1.24414,0.164062 -1.47656,0 -1.47656,-1.674805 v -4.935547 h -0.8545 v -0.895507 h 0.90235 l 0.3623,-1.654297 h 0.82031 v 1.654297 h 1.36719 v 0.895507 h -1.36719 v 4.668946 q 0,0.533203 0.1709,0.751953 0.17774,0.211914 0.6084,0.211914 0.2461,0 0.71094,-0.0957 z m 7.30078,-3.650391 q 0,1.941406 -0.85449,2.891601 -0.85449,0.950196 -2.48145,0.950196 -1.62011,0 -2.44726,-0.984375 -0.82715,-0.991211 -0.82715,-2.857422 0,-3.828125 3.31543,-3.828125 1.69531,0 2.49512,0.936523 0.7998,0.929688 0.7998,2.891602 z m -1.29199,0 q 0,-1.53125 -0.45801,-2.22168 -0.45117,-0.697265 -1.52441,-0.697265 -1.08008,0 -1.56543,0.710937 -0.47852,0.704102 -0.47852,2.208008 0,1.462891 0.47168,2.201172 0.47852,0.731445 1.49707,0.731445 1.10742,0 1.5791,-0.710937 0.47852,-0.710938 0.47852,-2.22168 z m 2.85058,3.705078 v -5.673828 q 0,-0.779297 -0.041,-1.722656 h 1.16211 q 0.0547,1.257812 0.0547,1.510742 h 0.0273 q 0.29394,-0.950195 0.67676,-1.298828 0.38281,-0.348633 1.08008,-0.348633 0.24609,0 0.49902,0.06836 v 1.12793 q -0.2461,-0.06836 -0.65625,-0.06836 -0.76563,0 -1.16895,0.663086 -0.40332,0.65625 -0.40332,1.886718 V 58.5938 Z m 8.59961,-0.963867 h -1.14843 v -0.198242 l 2.31054,-2.508789 -2.29687,-2.542969 v -0.211914 h 1.13476 l 2.31055,2.536133 v 0.430664 z m -3.17871,0 h -1.16211 v -0.198242 l 2.31055,-2.508789 -2.29687,-2.542969 v -0.211914 h 1.14843 l 2.29004,2.536133 v 0.430664 z"
       id="text7"
       clip-path="url(#clipPath2)"
       style="font-size:14px;font-family:sans-serif;fill:#ffffffff;stroke:none"
       aria-label="+ Edge(start: Vertex, to: Vertex, weight: float) «constructor»" />
  </g>
  <g
     fill="#ffffff"
     fill-opacity="0"
     transform="translate(140,140)"
     stroke-opacity="0"
     stroke="#ffffff"
     id="g8">
    <path
       id="rect7"
       clip-path="url(#clipPath3)"
       style="stroke:none"
       d="M 0.5,0.5 H 199 V 99 H 0.5 Z" />
  </g>
  <g
     transform="translate(140,140)"
     id="g11">
    <path
       id="rect8"
       clip-path="url(#clipPath3)"
       style="fill:none;stroke:#ffffffff"
       d="M 0.5,0.5 H 199 V 99 H 0.5 Z" />
    <path
       d="M 84.345703,17.5312 H 82.992187 L 79.061523,7.8993641 h 1.374024 l 2.666015,6.7812499 0.574219,1.702148 L 84.25,14.680614 86.902344,7.8993641 h 1.374023 z m 5.106445,-3.438477 q 0,1.271485 0.526368,1.961914 0.526367,0.69043 1.538086,0.69043 0.799804,0 1.27832,-0.321289 0.485351,-0.321289 0.65625,-0.813476 l 1.080078,0.307617 q -0.663086,1.75 -3.014648,1.75 -1.640625,0 -2.501954,-0.977539 -0.854492,-0.977539 -0.854492,-2.905274 0,-1.832031 0.854492,-2.80957 0.861329,-0.9775391 2.454102,-0.9775391 3.260742,0 3.260742,3.9306641 v 0.164062 z m 4.00586,-0.943359 q -0.102539,-1.168945 -0.594727,-1.702148 -0.492187,-0.540039 -1.415039,-0.540039 -0.895508,0 -1.421875,0.601562 -0.519531,0.594727 -0.560547,1.640625 z m 2.864258,4.381836 v -5.673828 q 0,-0.779297 -0.04102,-1.722656 h 1.162109 q 0.05469,1.257812 0.05469,1.510742 h 0.02734 q 0.293945,-0.950196 0.676757,-1.298828 0.382813,-0.3486331 1.080079,-0.3486331 0.246093,0 0.499023,0.068359 v 1.12793 q -0.246094,-0.06836 -0.65625,-0.06836 -0.765625,0 -1.168945,0.663085 -0.403321,0.65625 -0.403321,1.886719 V 17.5312 Z m 7.478514,-0.05469 q -0.6084,0.164063 -1.24414,0.164063 -1.47656,0 -1.47656,-1.674805 v -4.935547 h -0.85449 v -0.895507 h 0.90234 l 0.3623,-1.6542973 h 0.82032 v 1.6542973 h 1.36718 v 0.895507 h -1.36718 v 4.668946 q 0,0.533203 0.1709,0.751953 0.17773,0.211914 0.60839,0.211914 0.2461,0 0.71094,-0.0957 z m 1.98926,-3.383789 q 0,1.271485 0.52637,1.961914 0.52636,0.69043 1.53808,0.69043 0.79981,0 1.27832,-0.321289 0.48535,-0.321289 0.65625,-0.813476 l 1.08008,0.307617 q -0.66309,1.75 -3.01465,1.75 -1.64062,0 -2.50195,-0.977539 -0.85449,-0.977539 -0.85449,-2.905274 0,-1.832031 0.85449,-2.80957 0.86133,-0.9775391 2.4541,-0.9775391 3.26074,0 3.26074,3.9306641 v 0.164062 z m 4.00586,-0.943359 q -0.10254,-1.168945 -0.59473,-1.702148 -0.49219,-0.540039 -1.41504,-0.540039 -0.8955,0 -1.42187,0.601562 -0.51953,0.594727 -0.56055,1.640625 z m 7.36914,4.381836 -1.98926,-3.035156 -2.00293,3.035156 h -1.32617 l 2.63184,-3.800781 -2.50879,-3.595703 h 1.36035 l 1.8457,2.877929 1.83203,-2.877929 h 1.37403 l -2.50879,3.582031 2.66601,3.814453 z"
       id="text8"
       clip-path="url(#clipPath3)"
       style="font-size:14px;font-family:sans-serif;fill:#ffffffff;stroke:none"
       aria-label="Vertex" />
    <path
       fill="none"
       d="M 1,23.5312 H 199"
       clip-path="url(#clipPath3)"
       id="path8"
       style="stroke:#ffffffff" />
    <path
       d="m 9.5869141,33.90625 v 2.925781 H 8.5820313 V 33.90625 H 5.6835937 v -0.998047 h 2.8984376 v -2.925781 h 1.0048828 v 2.925781 h 2.8984379 v 0.998047 z m 13.0908199,2.966797 q -0.341797,0.710937 -0.909179,1.018555 -0.560547,0.307617 -1.394532,0.307617 -1.401367,0 -2.064453,-0.94336 -0.65625,-0.943359 -0.65625,-2.857422 0,-3.86914 2.720703,-3.86914 0.840821,0 1.401368,0.307617 0.560546,0.307617 0.902343,0.977539 h 0.01367 l -0.01367,-0.827148 v -3.069336 h 1.230469 v 8.620117 q 0,1.155273 0.04102,1.524414 h -1.175782 q -0.02051,-0.109375 -0.04785,-0.505859 -0.02051,-0.396485 -0.02051,-0.683594 z m -3.732422,-2.515625 q 0,1.551758 0.410157,2.22168 0.410156,0.669921 1.333008,0.669921 1.045898,0 1.517578,-0.724609 0.471679,-0.724609 0.471679,-2.249023 0,-1.469727 -0.471679,-2.153321 -0.47168,-0.683593 -1.503907,-0.683593 -0.929687,0 -1.346679,0.690429 -0.410157,0.683594 -0.410157,2.228516 z m 6.842774,-5.263672 v -1.175781 h 1.230469 v 1.175781 z m 0,8.96875 v -7.396484 h 1.230469 V 38.0625 Z m 8.667969,-2.043945 q 0,1.045898 -0.792969,1.613281 -0.786133,0.567383 -2.208008,0.567383 -1.380859,0 -2.132812,-0.451172 -0.745118,-0.458008 -0.970704,-1.421875 l 1.086915,-0.211914 q 0.157226,0.594726 0.649414,0.875 0.492187,0.273437 1.367187,0.273437 0.936524,0 1.367188,-0.287109 0.4375,-0.287109 0.4375,-0.861328 0,-0.4375 -0.300782,-0.710938 -0.300781,-0.273437 -0.970703,-0.451172 l -0.881836,-0.232421 q -1.05957,-0.273438 -1.510742,-0.533204 -0.444336,-0.266601 -0.697266,-0.642578 -0.252929,-0.375976 -0.252929,-0.922851 0,-1.011719 0.717773,-1.538086 0.72461,-0.533203 2.105469,-0.533203 1.223633,0 1.941406,0.430664 0.72461,0.430664 0.916016,1.380859 l -1.107422,0.136719 q -0.102539,-0.492188 -0.553711,-0.751953 -0.444336,-0.266602 -1.196289,-0.266602 -0.833984,0 -1.230469,0.25293 -0.396484,0.25293 -0.396484,0.765625 0,0.314453 0.164062,0.519531 0.164063,0.205078 0.485352,0.348633 0.321289,0.143555 1.353516,0.396484 0.977539,0.246094 1.408203,0.458008 0.430664,0.205078 0.676757,0.458008 0.25293,0.25293 0.389649,0.587891 0.136719,0.328125 0.136719,0.751953 z m 4.292968,1.989257 q -0.608398,0.164063 -1.24414,0.164063 -1.476563,0 -1.476563,-1.674805 v -4.935547 h -0.854492 v -0.895507 h 0.902344 l 0.362305,-1.654297 h 0.820312 v 1.654297 h 1.367188 v 0.895507 h -1.367188 v 4.668946 q 0,0.533203 0.170898,0.751953 0.177735,0.211914 0.608399,0.211914 0.246094,0 0.710937,-0.0957 z m 2.932618,0.191407 q -1.114258,0 -1.674805,-0.587891 -0.560547,-0.587891 -0.560547,-1.613281 0,-1.148438 0.751953,-1.763672 0.758789,-0.615234 2.44043,-0.65625 l 1.661133,-0.02734 v -0.40332 q 0,-0.902344 -0.382813,-1.291992 -0.382812,-0.389649 -1.203125,-0.389649 -0.827148,0 -1.203125,0.280274 -0.375976,0.280273 -0.451172,0.895508 l -1.285156,-0.116211 q 0.314453,-1.996094 2.966797,-1.996094 1.394531,0 2.098633,0.642578 0.704101,0.635742 0.704101,1.845703 v 3.185547 q 0,0.546875 0.143555,0.827148 0.143555,0.273438 0.546875,0.273438 0.177734,0 0.40332,-0.04785 v 0.765625 q -0.464843,0.109375 -0.950195,0.109375 -0.683594,0 -0.998047,-0.355468 -0.307617,-0.362305 -0.348633,-1.12793 h -0.04102 q -0.47168,0.847656 -1.100586,1.203125 -0.622071,0.348633 -1.517578,0.348633 z m 0.280273,-0.922852 q 0.676758,0 1.203125,-0.307617 0.526367,-0.307617 0.827148,-0.84082 0.307618,-0.540039 0.307618,-1.107422 v -0.608399 l -1.34668,0.02734 q -0.868164,0.01367 -1.319336,0.177734 -0.444336,0.164063 -0.683594,0.50586 -0.239258,0.341797 -0.239258,0.895508 0,0.601562 0.32129,0.929687 0.328125,0.328125 0.929687,0.328125 z m 10.31543,0.786133 v -4.689453 q 0,-0.731445 -0.143555,-1.134766 -0.143555,-0.40332 -0.458008,-0.581054 -0.314453,-0.177735 -0.922851,-0.177735 -0.888672,0 -1.401368,0.608399 -0.512695,0.608398 -0.512695,1.688476 V 38.0625 h -1.230469 v -5.817383 q 0,-1.291992 -0.04102,-1.579101 h 1.162109 q 0.0068,0.03418 0.01367,0.18457 0.0068,0.150391 0.01367,0.348633 0.01367,0.191406 0.02734,0.731445 h 0.02051 q 0.423829,-0.765625 0.97754,-1.080078 0.560546,-0.321289 1.387695,-0.321289 1.216797,0 1.777344,0.608398 0.567382,0.601563 0.567382,1.996094 V 38.0625 Z m 4.026367,-3.732422 q 0,1.476563 0.464844,2.1875 0.464843,0.710938 1.401367,0.710938 0.65625,0 1.09375,-0.355469 0.444336,-0.355469 0.546875,-1.09375 l 1.24414,0.08203 q -0.143554,1.066406 -0.909179,1.702149 -0.765625,0.635742 -1.941406,0.635742 -1.551758,0 -2.372071,-0.977539 -0.813476,-0.984375 -0.813476,-2.864258 0,-1.866211 0.820312,-2.84375 0.820313,-0.984375 2.351563,-0.984375 1.134765,0 1.879882,0.58789 0.751954,0.587891 0.94336,1.620118 l -1.264649,0.0957 q -0.0957,-0.615235 -0.485351,-0.977539 -0.389649,-0.362305 -1.107422,-0.362305 -0.977539,0 -1.415039,0.649414 -0.4375,0.649414 -0.4375,2.1875 z m 7.006836,0.293945 q 0,1.271485 0.526367,1.961914 0.526367,0.69043 1.538086,0.69043 0.799805,0 1.27832,-0.321289 0.485352,-0.321289 0.65625,-0.813476 l 1.080078,0.307617 q -0.663086,1.75 -3.014648,1.75 -1.640625,0 -2.501953,-0.977539 -0.854492,-0.977539 -0.854492,-2.905274 0,-1.832031 0.854492,-2.80957 0.861328,-0.977539 2.454101,-0.977539 3.260743,0 3.260743,3.930664 v 0.164062 z m 4.005859,-0.943359 q -0.102539,-1.168945 -0.594726,-1.702148 -0.492188,-0.540039 -1.415039,-0.540039 -0.895508,0 -1.421875,0.601562 -0.519532,0.594727 -0.560547,1.640625 z m 3.171875,-1.599609 v -1.415039 h 1.333008 v 1.415039 z m 0,5.981445 v -1.415039 h 1.333008 V 38.0625 Z m 8.96875,-6.500977 V 38.0625 H 78.226562 V 31.561523 H 77.1875 v -0.895507 h 1.039062 v -0.833985 q 0,-1.011719 0.444336,-1.456054 0.444336,-0.444336 1.360352,-0.444336 0.512695,0 0.868164,0.08203 v 0.936523 q -0.307617,-0.05469 -0.546875,-0.05469 -0.47168,0 -0.683594,0.239258 -0.211914,0.239257 -0.211914,0.868164 v 0.663086 h 1.442383 v 0.895507 z M 81.822266,38.0625 V 27.917969 h 1.230468 V 38.0625 Z M 91.1875,34.357422 q 0,1.941406 -0.854492,2.891601 -0.854492,0.950196 -2.481446,0.950196 -1.620117,0 -2.447265,-0.984375 -0.827149,-0.991211 -0.827149,-2.857422 0,-3.828125 3.31543,-3.828125 1.695313,0 2.495117,0.936523 0.799805,0.929688 0.799805,2.891602 z m -1.291992,0 q 0,-1.53125 -0.458008,-2.22168 -0.451172,-0.697265 -1.524414,-0.697265 -1.080078,0 -1.56543,0.710937 -0.478515,0.704102 -0.478515,2.208008 0,1.46289 0.471679,2.201172 0.478516,0.731445 1.497071,0.731445 1.107421,0 1.579101,-0.710937 0.478516,-0.710938 0.478516,-2.22168 z m 4.709961,3.841797 q -1.114258,0 -1.674805,-0.587891 -0.560547,-0.587891 -0.560547,-1.613281 0,-1.148438 0.751953,-1.763672 0.758789,-0.615234 2.44043,-0.65625 l 1.661133,-0.02734 v -0.40332 q 0,-0.902344 -0.382813,-1.291992 -0.382812,-0.389649 -1.203125,-0.389649 -0.827148,0 -1.203125,0.280274 -0.375976,0.280273 -0.451172,0.895508 l -1.285156,-0.116211 q 0.314453,-1.996094 2.966797,-1.996094 1.394531,0 2.098633,0.642578 0.704101,0.635742 0.704101,1.845703 v 3.185547 q 0,0.546875 0.143555,0.827148 0.143555,0.273438 0.546875,0.273438 0.177734,0 0.40332,-0.04785 v 0.765625 q -0.464843,0.109375 -0.950195,0.109375 -0.683594,0 -0.998047,-0.355468 -0.307617,-0.362305 -0.348633,-1.12793 h -0.04101 q -0.47168,0.847656 -1.100586,1.203125 -0.62207,0.348633 -1.517578,0.348633 z m 0.280273,-0.922852 q 0.676758,0 1.203125,-0.307617 0.526367,-0.307617 0.827149,-0.84082 0.307617,-0.540039 0.307617,-1.107422 v -0.608399 l -1.34668,0.02734 q -0.868164,0.01367 -1.319336,0.177734 -0.444336,0.164063 -0.683594,0.50586 -0.239257,0.341797 -0.239257,0.895508 0,0.601562 0.321289,0.929687 0.328125,0.328125 0.929687,0.328125 z m 8.462888,0.731445 q -0.6084,0.164063 -1.24414,0.164063 -1.47656,0 -1.47656,-1.674805 v -4.935547 h -0.854493 v -0.895507 h 0.902343 l 0.36231,-1.654297 h 0.82031 v 1.654297 h 1.36719 v 0.895507 h -1.36719 v 4.668946 q 0,0.533203 0.1709,0.751953 0.17773,0.211914 0.6084,0.211914 0.24609,0 0.71093,-0.0957 z m 4.67578,-5.796875 v -1.011718 h 6.80176 v 1.011718 z m 0,3.5 v -1.011718 h 6.80176 v 1.011718 z m 12.67383,2.351563 v -9.631836 h 1.30567 V 38.0625 Z m 8.23731,0 v -4.689453 q 0,-0.731445 -0.14356,-1.134766 -0.14355,-0.40332 -0.45801,-0.581054 -0.31445,-0.177735 -0.92285,-0.177735 -0.88867,0 -1.40136,0.608399 -0.5127,0.608398 -0.5127,1.688476 V 38.0625 h -1.23047 v -5.817383 q 0,-1.291992 -0.041,-1.579101 h 1.16211 q 0.007,0.03418 0.0137,0.18457 0.007,0.150391 0.0137,0.348633 0.0137,0.191406 0.0273,0.731445 h 0.0205 q 0.42383,-0.765625 0.97754,-1.080078 0.56055,-0.321289 1.3877,-0.321289 1.21679,0 1.77734,0.608398 0.56738,0.601563 0.56738,1.996094 V 38.0625 Z m 4.61425,-6.500977 V 38.0625 h -1.23046 v -6.500977 h -1.03907 v -0.895507 h 1.03907 v -0.833985 q 0,-1.011719 0.44433,-1.456054 0.44434,-0.444336 1.36035,-0.444336 0.5127,0 0.86817,0.08203 v 0.936523 q -0.30762,-0.05469 -0.54688,-0.05469 -0.47168,0 -0.68359,0.239258 -0.21192,0.239257 -0.21192,0.868164 v 0.663086 h 1.44239 v 0.895507 z m 2.3584,-2.467773 v -1.175781 h 1.23047 v 1.175781 z m 0,8.96875 v -7.396484 h 1.23047 V 38.0625 Z m 7.81348,0 v -4.689453 q 0,-0.731445 -0.14356,-1.134766 -0.14355,-0.40332 -0.458,-0.581054 -0.31446,-0.177735 -0.92285,-0.177735 -0.88868,0 -1.40137,0.608399 -0.5127,0.608398 -0.5127,1.688476 V 38.0625 h -1.23047 v -5.817383 q 0,-1.291992 -0.041,-1.579101 h 1.16211 q 0.007,0.03418 0.0137,0.18457 0.007,0.150391 0.0137,0.348633 0.0137,0.191406 0.0274,0.731445 h 0.0205 q 0.42383,-0.765625 0.97754,-1.080078 0.56055,-0.321289 1.3877,-0.321289 1.21679,0 1.77734,0.608398 0.56738,0.601563 0.56738,1.996094 V 38.0625 Z m 3.08301,-8.96875 v -1.175781 h 1.23047 v 1.175781 z m 0,8.96875 v -7.396484 h 1.23047 V 38.0625 Z m 5.96093,-0.05469 q -0.60839,0.164063 -1.24414,0.164063 -1.47656,0 -1.47656,-1.674805 v -4.935547 h -0.85449 v -0.895507 h 0.90234 l 0.36231,-1.654297 h 0.82031 v 1.654297 h 1.36719 v 0.895507 h -1.36719 v 4.668946 q 0,0.533203 0.1709,0.751953 0.17773,0.211914 0.6084,0.211914 0.24609,0 0.71093,-0.0957 z m 1.40821,2.959961 q -0.50586,0 -0.84766,-0.0752 v -0.922851 q 0.25977,0.04102 0.57422,0.04102 1.14844,0 1.81836,-1.688476 l 0.11621,-0.293946 -2.93262,-7.362304 h 1.3125 l 1.5586,4.08789 q 0.0342,0.0957 0.082,0.232422 0.0479,0.129883 0.30762,0.888672 0.25976,0.758789 0.28027,0.847656 l 0.47851,-1.346679 1.62012,-4.709961 h 1.29883 l -2.84375,7.396484 q -0.45801,1.182617 -0.85449,1.756836 -0.39649,0.581055 -0.88184,0.861328 -0.47851,0.287109 -1.08691,0.287109 z"
       id="text9"
       clip-path="url(#clipPath3)"
       style="font-size:14px;font-family:sans-serif;fill:#ffffffff;stroke:none"
       aria-label="+ distance: float = Infinity" />
    <path
       d="m 9.5869141,49.43755 v 2.925781 H 8.5820313 V 49.43755 H 5.6835937 v -0.998047 h 2.8984376 v -2.925781 h 1.0048828 v 2.925781 H 12.485352 V 49.43755 Z M 21.255859,53.5938 h -1.456054 l -2.686524,-7.396484 h 1.3125 l 1.626953,4.8125 q 0.08887,0.273437 0.47168,1.620117 l 0.239258,-0.799805 0.266601,-0.80664 1.681641,-4.826172 h 1.305664 z m 3.746094,-8.96875 v -1.175781 h 1.230469 v 1.175781 z m 0,8.96875 v -7.396484 h 1.230469 V 53.5938 Z m 8.667969,-2.043945 q 0,1.045898 -0.792969,1.613281 -0.786133,0.567383 -2.208008,0.567383 -1.380859,0 -2.132812,-0.451172 -0.745117,-0.458008 -0.970703,-1.421875 l 1.086914,-0.211914 q 0.157226,0.594726 0.649414,0.875 0.492187,0.273437 1.367187,0.273437 0.936524,0 1.367188,-0.287109 0.4375,-0.287109 0.4375,-0.861328 0,-0.4375 -0.300781,-0.710938 -0.300782,-0.273437 -0.970704,-0.451172 l -0.881836,-0.232421 q -1.05957,-0.273438 -1.510742,-0.533204 -0.444336,-0.266601 -0.697265,-0.642578 -0.25293,-0.375976 -0.25293,-0.922851 0,-1.011719 0.717773,-1.538086 0.72461,-0.533203 2.105469,-0.533203 1.223633,0 1.941406,0.430664 0.72461,0.430664 0.916016,1.380859 l -1.107422,0.136719 q -0.102539,-0.492188 -0.553711,-0.751953 -0.444336,-0.266602 -1.196289,-0.266602 -0.833984,0 -1.230469,0.25293 -0.396484,0.25293 -0.396484,0.765625 0,0.314453 0.164063,0.519531 0.164062,0.205078 0.485351,0.348633 0.321289,0.143555 1.353516,0.396484 0.977539,0.246094 1.408203,0.458008 0.430664,0.205078 0.676758,0.458008 0.252929,0.25293 0.389648,0.587891 0.136719,0.328125 0.136719,0.751953 z m 1.442383,-6.924805 v -1.175781 h 1.230468 v 1.175781 z m 0,8.96875 v -7.396484 h 1.230468 V 53.5938 Z m 5.960937,-0.05469 q -0.608398,0.164062 -1.24414,0.164062 -1.476563,0 -1.476563,-1.674805 v -4.935547 h -0.854492 v -0.895507 h 0.902344 l 0.362304,-1.654297 h 0.820313 v 1.654297 h 1.367187 v 0.895507 h -1.367187 v 4.668946 q 0,0.533203 0.170898,0.751953 0.177735,0.211914 0.608399,0.211914 0.246093,0 0.710937,-0.0957 z m 1.989258,-3.38379 q 0,1.271485 0.526367,1.961915 0.526367,0.690429 1.538086,0.690429 0.799805,0 1.27832,-0.321289 0.485352,-0.321289 0.65625,-0.813476 l 1.080079,0.307617 q -0.663086,1.75 -3.014649,1.75 -1.640625,0 -2.501953,-0.977539 -0.854492,-0.977539 -0.854492,-2.905274 0,-1.832031 0.854492,-2.80957 0.861328,-0.977539 2.454102,-0.977539 3.260742,0 3.260742,3.930664 v 0.164062 z m 4.005859,-0.943359 q -0.102539,-1.168945 -0.594726,-1.702148 -0.492188,-0.540039 -1.415039,-0.540039 -0.895508,0 -1.421875,0.601562 -0.519532,0.594727 -0.560547,1.640625 z m 7.50586,3.192383 q -0.341797,0.710937 -0.90918,1.018555 -0.560547,0.307617 -1.394531,0.307617 -1.401367,0 -2.064453,-0.94336 -0.65625,-0.943359 -0.65625,-2.857421 0,-3.869141 2.720703,-3.869141 0.84082,0 1.401367,0.307617 0.560547,0.307617 0.902344,0.977539 h 0.01367 l -0.01367,-0.827148 v -3.069336 h 1.230468 v 8.620117 q 0,1.155273 0.04102,1.524414 h -1.175781 q -0.02051,-0.109375 -0.04785,-0.505859 -0.02051,-0.396485 -0.02051,-0.683594 z m -3.732422,-2.515625 q 0,1.551758 0.410156,2.22168 0.410156,0.669921 1.333008,0.669921 1.045898,0 1.517578,-0.724609 0.47168,-0.724609 0.47168,-2.249023 0,-1.469727 -0.47168,-2.153321 -0.47168,-0.683593 -1.503906,-0.683593 -0.929688,0 -1.34668,0.690429 -0.410156,0.683594 -0.410156,2.228516 z m 7.18457,-2.276367 v -1.415039 h 1.333008 v 1.415039 z m 0,5.981445 v -1.415039 h 1.333008 V 53.5938 Z m 13.699219,-3.732422 q 0,3.869141 -2.720703,3.869141 -0.840821,0 -1.401367,-0.300781 -0.553711,-0.307618 -0.902344,-0.984375 H 66.6875 q 0,0.211914 -0.02734,0.649414 -0.02734,0.430664 -0.04102,0.499023 h -1.189454 q 0.04102,-0.369141 0.04102,-1.524414 v -8.620117 h 1.230469 v 2.891601 q 0,0.444336 -0.02734,1.045899 h 0.02734 q 0.341797,-0.710938 0.902344,-1.018555 0.567382,-0.307617 1.401367,-0.307617 1.401367,0 2.057617,0.943359 0.663086,0.94336 0.663086,2.857422 z m -1.291992,0.04102 q 0,-1.551758 -0.410157,-2.22168 -0.410156,-0.669922 -1.333007,-0.669922 -1.039063,0 -1.517578,0.710938 -0.47168,0.710937 -0.47168,2.255859 0,1.456055 0.464844,2.15332 0.464843,0.69043 1.510742,0.69043 0.929687,0 1.339844,-0.683594 0.416992,-0.690429 0.416992,-2.235351 z m 9.078125,-0.01367 q 0,1.941406 -0.854492,2.891601 -0.854493,0.950196 -2.481446,0.950196 -1.620117,0 -2.447265,-0.984375 -0.827149,-0.991211 -0.827149,-2.857422 0,-3.828125 3.31543,-3.828125 1.695312,0 2.495117,0.936523 0.799805,0.929688 0.799805,2.891602 z m -1.291992,0 q 0,-1.53125 -0.458008,-2.22168 -0.451172,-0.697265 -1.524414,-0.697265 -1.080078,0 -1.56543,0.710937 -0.478516,0.704102 -0.478516,2.208008 0,1.462891 0.47168,2.201172 0.478516,0.731445 1.49707,0.731445 1.107422,0 1.579102,-0.710937 0.478516,-0.710938 0.478516,-2.22168 z m 9.078125,0 q 0,1.941406 -0.854493,2.891601 -0.854492,0.950196 -2.481445,0.950196 -1.620117,0 -2.447266,-0.984375 -0.827148,-0.991211 -0.827148,-2.857422 0,-3.828125 3.31543,-3.828125 1.695312,0 2.495117,0.936523 0.799805,0.929688 0.799805,2.891602 z m -1.291993,0 q 0,-1.53125 -0.458007,-2.22168 -0.451172,-0.697265 -1.524415,-0.697265 -1.080078,0 -1.565429,0.710937 -0.478516,0.704102 -0.478516,2.208008 0,1.462891 0.47168,2.201172 0.478515,0.731445 1.49707,0.731445 1.107422,0 1.579102,-0.710937 0.478515,-0.710938 0.478515,-2.22168 z M 88.829102,53.5938 V 43.449269 H 90.05957 V 53.5938 Z m 4.05371,-3.438477 q 0,1.271485 0.526368,1.961915 0.526367,0.690429 1.538086,0.690429 0.799804,0 1.27832,-0.321289 0.485351,-0.321289 0.65625,-0.813476 l 1.080078,0.307617 q -0.663086,1.75 -3.014648,1.75 -1.640625,0 -2.501954,-0.977539 -0.854492,-0.977539 -0.854492,-2.905274 0,-1.832031 0.854492,-2.80957 0.861329,-0.977539 2.454102,-0.977539 3.260742,0 3.260742,3.930664 v 0.164062 z m 4.00586,-0.943359 q -0.102539,-1.168945 -0.594727,-1.702148 -0.492187,-0.540039 -1.415039,-0.540039 -0.895508,0 -1.421875,0.601562 -0.519531,0.594727 -0.560547,1.640625 z m 4.723628,4.518555 q -1.11425,0 -1.6748,-0.587891 -0.560547,-0.58789 -0.560547,-1.613281 0,-1.148438 0.751957,-1.763672 0.75879,-0.615234 2.44043,-0.65625 l 1.66113,-0.02734 v -0.40332 q 0,-0.902344 -0.38281,-1.291992 -0.38282,-0.389649 -1.20313,-0.389649 -0.82715,0 -1.20312,0.280274 -0.37598,0.280273 -0.45118,0.895508 l -1.285152,-0.116211 q 0.314452,-1.996094 2.966802,-1.996094 1.39453,0 2.09863,0.642578 0.7041,0.635742 0.7041,1.845703 v 3.185547 q 0,0.546875 0.14355,0.827148 0.14356,0.273438 0.54688,0.273438 0.17773,0 0.40332,-0.04785 v 0.765625 q -0.46484,0.109375 -0.9502,0.109375 -0.68359,0 -0.99804,-0.355468 -0.30762,-0.362305 -0.34864,-1.12793 h -0.041 q -0.47168,0.847656 -1.10059,1.203125 -0.62207,0.348633 -1.51758,0.348633 z m 0.28028,-0.922852 q 0.67676,0 1.20312,-0.307617 0.52637,-0.307617 0.82715,-0.84082 0.30762,-0.540039 0.30762,-1.107422 v -0.608399 l -1.34668,0.02734 q -0.86816,0.01367 -1.31934,0.177735 -0.44433,0.164062 -0.68359,0.505859 -0.23926,0.341797 -0.23926,0.895508 0,0.601562 0.32129,0.929687 0.32813,0.328125 0.92969,0.328125 z m 10.31543,0.786133 v -4.689453 q 0,-0.731445 -0.14356,-1.134766 -0.14355,-0.40332 -0.458,-0.581054 -0.31446,-0.177735 -0.92286,-0.177735 -0.88867,0 -1.40136,0.608399 -0.5127,0.608398 -0.5127,1.688476 V 53.5938 h -1.23047 v -5.817383 q 0,-1.291992 -0.041,-1.579101 h 1.16211 q 0.007,0.03418 0.0137,0.18457 0.007,0.150391 0.0137,0.348633 0.0137,0.191406 0.0273,0.731445 h 0.0205 q 0.42383,-0.765625 0.97754,-1.080078 0.56055,-0.321289 1.3877,-0.321289 1.21679,0 1.77734,0.608398 0.56738,0.601563 0.56738,1.996094 V 53.5938 Z"
       id="text10"
       clip-path="url(#clipPath3)"
       style="font-size:14px;font-family:sans-serif;fill:#ffffffff;stroke:none"
       aria-label="+ visited: boolean" />
    <path
       fill="none"
       d="M 1,59.5938 H 199"
       clip-path="url(#clipPath3)"
       id="path10"
       style="stroke:#ffffffff" />
    <path
       d="m 9.5869141,69.96875 v 2.925781 H 8.5820313 V 69.96875 H 5.6835937 v -0.998047 h 2.8984376 v -2.925781 h 1.0048828 v 2.925781 H 12.485352 V 69.96875 Z M 22.411133,74.125 h -1.353516 l -3.930664,-9.631836 h 1.374024 l 2.666015,6.78125 0.574219,1.702148 0.574219,-1.702148 2.652343,-6.78125 h 1.374024 z m 5.106445,-3.438477 q 0,1.271485 0.526367,1.961914 0.526367,0.69043 1.538086,0.69043 0.799805,0 1.278321,-0.321289 0.485351,-0.321289 0.65625,-0.813476 l 1.080078,0.307617 q -0.663086,1.75 -3.014649,1.75 -1.640625,0 -2.501953,-0.977539 -0.854492,-0.977539 -0.854492,-2.905274 0,-1.832031 0.854492,-2.80957 0.861328,-0.977539 2.454102,-0.977539 3.260742,0 3.260742,3.930664 v 0.164062 z m 4.005859,-0.943359 q -0.102539,-1.168945 -0.594726,-1.702148 -0.492188,-0.540039 -1.415039,-0.540039 -0.895508,0 -1.421875,0.601562 -0.519531,0.594727 -0.560547,1.640625 z M 34.387695,74.125 v -5.673828 q 0,-0.779297 -0.04102,-1.722656 h 1.162109 q 0.05469,1.257812 0.05469,1.510742 h 0.02734 q 0.293946,-0.950196 0.676758,-1.298828 0.382813,-0.348633 1.080078,-0.348633 0.246094,0 0.499024,0.06836 v 1.12793 q -0.246094,-0.06836 -0.65625,-0.06836 -0.765625,0 -1.168946,0.663085 -0.40332,0.65625 -0.40332,1.886719 V 74.125 Z m 7.478516,-0.05469 q -0.608399,0.164063 -1.244141,0.164063 -1.476562,0 -1.476562,-1.674805 v -4.935547 h -0.854492 v -0.895507 h 0.902343 l 0.362305,-1.654297 h 0.820313 v 1.654297 h 1.367187 v 0.895507 h -1.367187 v 4.668946 q 0,0.533203 0.170898,0.751953 0.177734,0.211914 0.608398,0.211914 0.246094,0 0.710938,-0.0957 z m 1.989258,-3.383789 q 0,1.271485 0.526367,1.961914 0.526367,0.69043 1.538086,0.69043 0.799805,0 1.27832,-0.321289 0.485352,-0.321289 0.65625,-0.813476 l 1.080078,0.307617 q -0.663086,1.75 -3.014648,1.75 -1.640625,0 -2.501953,-0.977539 -0.854492,-0.977539 -0.854492,-2.905274 0,-1.832031 0.854492,-2.80957 0.861328,-0.977539 2.454101,-0.977539 3.260742,0 3.260742,3.930664 v 0.164062 z m 4.005859,-0.943359 q -0.102539,-1.168945 -0.594726,-1.702148 -0.492188,-0.540039 -1.41504,-0.540039 -0.895507,0 -1.421875,0.601562 -0.519531,0.594727 -0.560546,1.640625 z M 55.230469,74.125 53.241211,71.089844 51.238281,74.125 h -1.326172 l 2.631836,-3.800781 -2.508789,-3.595703 h 1.360352 l 1.845703,2.877929 1.832031,-2.877929 h 1.374024 l -2.508789,3.582031 2.666015,3.814453 z m 2.392578,-3.636719 q 0,-1.975586 0.615234,-3.547851 0.622071,-1.572266 1.907227,-2.959961 h 1.189453 q -1.27832,1.421875 -1.879883,3.021484 -0.594726,1.599609 -0.594726,3.5 0,1.893555 0.58789,3.486328 0.594727,1.592774 1.886719,3.035156 h -1.189453 q -1.291992,-1.394531 -1.907227,-2.966796 -0.615234,-1.579102 -0.615234,-3.541016 z m 7.58789,0.02734 q 0,1.975586 -0.62207,3.547852 -0.615234,1.572265 -1.90039,2.95996 h -1.189454 q 1.285157,-1.435546 1.879883,-3.021484 0.594727,-1.592773 0.594727,-3.5 0,-1.907226 -0.601563,-3.5 -0.594726,-1.592773 -1.873047,-3.021484 h 1.189454 q 1.291992,1.394531 1.907226,2.973633 0.615234,1.572265 0.615234,3.534179 z m 10.814454,2.645508 -2.310547,-2.495117 v -0.430664 l 2.310547,-2.536133 h 1.148437 v 0.211914 l -2.310547,2.542969 2.324219,2.508789 v 0.198242 z m -3.192383,0 -2.296875,-2.495117 v -0.430664 l 2.296875,-2.536133 h 1.141601 v 0.211914 l -2.290039,2.542969 2.303711,2.508789 v 0.198242 z m 6.801758,-2.768555 q 0,1.476563 0.464843,2.1875 0.464844,0.710938 1.401368,0.710938 0.65625,0 1.09375,-0.355469 0.444335,-0.355469 0.546875,-1.09375 l 1.24414,0.08203 q -0.143555,1.066406 -0.90918,1.702149 -0.765625,0.635742 -1.941406,0.635742 -1.551758,0 -2.37207,-0.977539 -0.813477,-0.984375 -0.813477,-2.864258 0,-1.866211 0.820313,-2.84375 0.820312,-0.984375 2.351562,-0.984375 1.134766,0 1.879883,0.58789 0.751953,0.587891 0.94336,1.620118 l -1.264649,0.0957 q -0.0957,-0.615235 -0.485351,-0.977539 -0.389649,-0.362305 -1.107422,-0.362305 -0.977539,0 -1.415039,0.649414 -0.4375,0.649414 -0.4375,2.1875 z m 12.318359,0.02734 q 0,1.941406 -0.854492,2.891601 -0.854492,0.950196 -2.481446,0.950196 -1.620117,0 -2.447265,-0.984375 -0.827149,-0.991211 -0.827149,-2.857422 0,-3.828125 3.31543,-3.828125 1.695313,0 2.495117,0.936523 0.799805,0.929688 0.799805,2.891602 z m -1.291992,0 q 0,-1.53125 -0.458008,-2.22168 -0.451172,-0.697265 -1.524414,-0.697265 -1.080078,0 -1.56543,0.710937 -0.478515,0.704102 -0.478515,2.208008 0,1.46289 0.471679,2.201172 0.478516,0.731445 1.497071,0.731445 1.107421,0 1.579101,-0.710937 0.478516,-0.710938 0.478516,-2.22168 z M 98.180664,74.125 v -4.689453 q 0,-0.731445 -0.143555,-1.134766 -0.143554,-0.40332 -0.458007,-0.581054 -0.314454,-0.177735 -0.922852,-0.177735 -0.888672,0 -1.401367,0.608399 -0.512696,0.608398 -0.512696,1.688476 V 74.125 h -1.230468 v -5.817383 q 0,-1.291992 -0.04102,-1.579101 h 1.162109 q 0.0068,0.03418 0.01367,0.18457 0.0068,0.150391 0.01367,0.348633 0.01367,0.191406 0.02734,0.731445 h 0.02051 q 0.423828,-0.765625 0.977539,-1.080078 0.560547,-0.321289 1.387695,-0.321289 1.216797,0 1.777344,0.608398 0.567383,0.601563 0.567383,1.996094 V 74.125 Z m 8.640626,-2.043945 q 0,1.045898 -0.79297,1.613281 -0.78613,0.567383 -2.20801,0.567383 -1.38086,0 -2.13281,-0.451172 -0.74512,-0.458008 -0.9707,-1.421875 l 1.08691,-0.211914 q 0.15723,0.594726 0.64942,0.875 0.49218,0.273437 1.36718,0.273437 0.93653,0 1.36719,-0.287109 0.4375,-0.287109 0.4375,-0.861328 0,-0.4375 -0.30078,-0.710938 -0.30078,-0.273437 -0.9707,-0.451172 l -0.88184,-0.232421 q -1.05957,-0.273438 -1.51074,-0.533204 -0.44434,-0.266601 -0.69727,-0.642578 -0.25293,-0.375976 -0.25293,-0.922851 0,-1.011719 0.71778,-1.538086 0.72461,-0.533203 2.10546,-0.533203 1.22364,0 1.94141,0.430664 0.72461,0.430664 0.91602,1.380859 l -1.10743,0.136719 q -0.10253,-0.492188 -0.55371,-0.751953 -0.44433,-0.266602 -1.19629,-0.266602 -0.83398,0 -1.23046,0.25293 -0.39649,0.25293 -0.39649,0.765625 0,0.314453 0.16406,0.519531 0.16407,0.205078 0.48536,0.348633 0.32128,0.143555 1.35351,0.396484 0.97754,0.246094 1.4082,0.458008 0.43067,0.205078 0.67676,0.458008 0.25293,0.25293 0.38965,0.587891 0.13672,0.328125 0.13672,0.751953 z m 4.29297,1.989257 q -0.6084,0.164063 -1.24414,0.164063 -1.47657,0 -1.47657,-1.674805 v -4.935547 h -0.85449 v -0.895507 h 0.90235 l 0.3623,-1.654297 h 0.82031 v 1.654297 h 1.36719 v 0.895507 h -1.36719 v 4.668946 q 0,0.533203 0.1709,0.751953 0.17774,0.211914 0.6084,0.211914 0.24609,0 0.71094,-0.0957 z m 1.07324,0.05469 v -5.673828 q 0,-0.779297 -0.041,-1.722656 h 1.16211 q 0.0547,1.257812 0.0547,1.510742 h 0.0273 q 0.29394,-0.950196 0.67675,-1.298828 0.38282,-0.348633 1.08008,-0.348633 0.24609,0 0.49902,0.06836 v 1.12793 q -0.24609,-0.06836 -0.65625,-0.06836 -0.76562,0 -1.16894,0.663085 -0.40332,0.65625 -0.40332,1.886719 V 74.125 Z m 5.83789,-7.396484 v 4.689453 q 0,0.731445 0.14356,1.134765 0.14355,0.403321 0.458,0.581055 0.31446,0.177734 0.92285,0.177734 0.88868,0 1.40137,-0.608398 0.5127,-0.608398 0.5127,-1.688477 v -4.286132 h 1.23047 v 5.817382 q 0,1.291993 0.041,1.579102 h -1.16211 q -0.007,-0.03418 -0.0137,-0.18457 -0.007,-0.150391 -0.0205,-0.341797 -0.007,-0.198242 -0.0205,-0.738281 h -0.0205 q -0.42383,0.765625 -0.98438,1.086914 -0.55371,0.314453 -1.38086,0.314453 -1.21679,0 -1.78418,-0.601563 -0.56054,-0.608398 -0.56054,-2.002929 v -4.928711 z m 7.51953,3.664062 q 0,1.476563 0.46485,2.1875 0.46484,0.710938 1.40136,0.710938 0.65625,0 1.09375,-0.355469 0.44434,-0.355469 0.54688,-1.09375 l 1.24414,0.08203 q -0.14356,1.066406 -0.90918,1.702149 -0.76563,0.635742 -1.94141,0.635742 -1.55176,0 -2.37207,-0.977539 -0.81347,-0.984375 -0.81347,-2.864258 0,-1.866211 0.82031,-2.84375 0.82031,-0.984375 2.35156,-0.984375 1.13477,0 1.87988,0.58789 0.75196,0.587891 0.94336,1.620118 l -1.26465,0.0957 q -0.0957,-0.615235 -0.48535,-0.977539 -0.38965,-0.362305 -1.10742,-0.362305 -0.97754,0 -1.41504,0.649414 -0.4375,0.649414 -0.4375,2.1875 z m 8.90723,3.677734 q -0.6084,0.164063 -1.24414,0.164063 -1.47656,0 -1.47656,-1.674805 v -4.935547 h -0.8545 v -0.895507 h 0.90235 l 0.3623,-1.654297 h 0.82031 v 1.654297 h 1.36719 v 0.895507 h -1.36719 v 4.668946 q 0,0.533203 0.1709,0.751953 0.17774,0.211914 0.6084,0.211914 0.24609,0 0.71094,-0.0957 z m 7.30078,-3.65039 q 0,1.941406 -0.85449,2.891601 -0.85449,0.950196 -2.48145,0.950196 -1.62012,0 -2.44726,-0.984375 -0.82715,-0.991211 -0.82715,-2.857422 0,-3.828125 3.31543,-3.828125 1.69531,0 2.49511,0.936523 0.79981,0.929688 0.79981,2.891602 z m -1.29199,0 q 0,-1.53125 -0.45801,-2.22168 -0.45117,-0.697265 -1.52441,-0.697265 -1.08008,0 -1.56543,0.710937 -0.47852,0.704102 -0.47852,2.208008 0,1.46289 0.47168,2.201172 0.47852,0.731445 1.49707,0.731445 1.10742,0 1.5791,-0.710937 0.47852,-0.710938 0.47852,-2.22168 z m 2.85058,3.705078 v -5.673828 q 0,-0.779297 -0.041,-1.722656 h 1.16211 q 0.0547,1.257812 0.0547,1.510742 h 0.0273 q 0.29394,-0.950196 0.67676,-1.298828 0.38281,-0.348633 1.08007,-0.348633 0.2461,0 0.49903,0.06836 v 1.12793 q -0.2461,-0.06836 -0.65625,-0.06836 -0.76563,0 -1.16895,0.663085 -0.40332,0.65625 -0.40332,1.886719 V 74.125 Z m 8.59961,-0.963867 h -1.14843 v -0.198242 l 2.31054,-2.508789 -2.29687,-2.542969 v -0.211914 h 1.13476 l 2.31055,2.536133 v 0.430664 z m -3.17871,0 h -1.16211 v -0.198242 l 2.31055,-2.508789 -2.29688,-2.542969 v -0.211914 h 1.14844 l 2.29004,2.536133 v 0.430664 z"
       id="text11"
       clip-path="url(#clipPath3)"
       style="font-size:14px;font-family:sans-serif;fill:#ffffffff;stroke:none"
       aria-label="+ Vertex() «constructor»" />
  </g>
  <g
     transform="translate(330,210)"
     id="g12">
    <path
       fill="none"
       d="m 11.5,20.5 h 179"
       clip-path="url(#clipPath4)"
       id="path11"
       style="stroke:#ffffffff" />
    <path
       fill="none"
       d="M 22.2583,27 11,20.5 22.2583,14"
       clip-path="url(#clipPath4)"
       id="path12"
       style="stroke:#ffffffff" />
    <path
       d="m 81.228506,16 v -1.045898 h 2.454102 V 7.5439453 L 81.50878,9.0957031 V 7.9335937 l 2.276367,-1.5654296 h 1.134765 v 8.5859379 h 2.344727 V 16 Z M 94.305655,9.4990234 V 16 H 93.075186 V 9.4990234 H 92.036123 V 8.6035156 h 1.039063 V 7.7695312 q 0,-1.0117187 0.444336,-1.4560546 0.444336,-0.444336 1.360351,-0.444336 0.512696,0 0.868164,0.082031 v 0.9365234 q -0.307617,-0.054687 -0.546875,-0.054687 -0.471679,0 -0.683593,0.2392578 -0.211914,0.2392578 -0.211914,0.8681641 v 0.6630859 h 1.442382 V 9.4990234 Z M 96.698233,16 v -5.673828 q 0,-0.779297 -0.04102,-1.7226564 h 1.16211 q 0.05469,1.2578125 0.05469,1.5107424 h 0.02734 q 0.293945,-0.9501955 0.676758,-1.2988283 0.382812,-0.3486328 1.080078,-0.3486328 0.246093,0 0.499026,0.068359 v 1.1279296 q -0.246097,-0.068359 -0.656253,-0.068359 -0.765625,0 -1.168945,0.6630864 -0.40332,0.65625 -0.40332,1.886718 V 16 Z m 10.889647,-3.705078 q 0,1.941406 -0.85449,2.891601 -0.85449,0.950196 -2.48145,0.950196 -1.62011,0 -2.44726,-0.984375 -0.82715,-0.991211 -0.82715,-2.857422 0,-3.8281251 3.31543,-3.8281251 1.69531,0 2.49512,0.9365234 0.7998,0.9296877 0.7998,2.8916017 z m -1.29199,0 q 0,-1.53125 -0.45801,-2.22168 -0.45117,-0.6972654 -1.52441,-0.6972654 -1.08008,0 -1.56543,0.7109374 -0.47852,0.704102 -0.47852,2.208008 0,1.462891 0.47168,2.201172 0.47852,0.731445 1.49707,0.731445 1.10742,0 1.5791,-0.710937 0.47852,-0.710938 0.47852,-2.22168 z M 113.42577,16 v -4.689453 q 0,-1.073242 -0.29394,-1.4833986 -0.29395,-0.4101562 -1.05957,-0.4101562 -0.78614,0 -1.24414,0.6015628 -0.45801,0.601562 -0.45801,1.695312 V 16 h -1.22364 v -5.817383 q 0,-1.291992 -0.041,-1.5791014 h 1.16211 q 0.007,0.03418 0.0137,0.1845703 0.007,0.1503907 0.0137,0.3486329 0.0137,0.1914062 0.0273,0.7314453 h 0.0205 q 0.39649,-0.7861328 0.90918,-1.09375 0.5127,-0.3076172 1.25098,-0.3076172 0.84082,0 1.32617,0.3349609 0.49219,0.334961 0.6836,1.0664063 h 0.0205 q 0.38282,-0.7451172 0.92286,-1.0732422 0.54687,-0.328125 1.31933,-0.328125 1.12109,0 1.62695,0.6083984 0.5127,0.6083985 0.5127,1.9960937 V 16 h -1.2168 v -4.689453 q 0,-1.073242 -0.29394,-1.4833986 -0.29395,-0.4101562 -1.05957,-0.4101562 -0.80664,0 -1.25782,0.6015628 -0.44433,0.594726 -0.44433,1.695312 V 16 Z"
       id="text12"
       clip-path="url(#clipPath4)"
       style="font-size:14px;font-family:sans-serif;fill:#ffffffff;stroke:none"
       aria-label="1 from" />
  </g>
  <g
     transform="translate(330,180)"
     id="g14">
    <path
       fill="none"
       d="m 11.5,20.5 h 179"
       clip-path="url(#clipPath4)"
       id="path13"
       style="stroke:#ffffffff" />
    <path
       fill="none"
       d="M 22.2583,27 11,20.5 22.2583,14"
       clip-path="url(#clipPath4)"
       id="path14"
       style="stroke:#ffffffff" />
    <path
       d="m 81.614706,16 v -1.045898 h 2.454102 V 7.5439453 L 81.89498,9.0957031 V 7.9335937 l 2.276367,-1.5654296 h 1.134765 v 8.5859379 h 2.344727 V 16 Z m 17.103516,-2.043945 q 0,1.045898 -0.792969,1.613281 -0.786133,0.567383 -2.208008,0.567383 -1.380859,0 -2.132812,-0.451172 -0.745117,-0.458008 -0.970703,-1.421875 l 1.086914,-0.211914 q 0.157226,0.594726 0.649414,0.875 0.492187,0.273437 1.367187,0.273437 0.936524,0 1.367188,-0.287109 0.4375,-0.287109 0.4375,-0.861328 0,-0.4375 -0.300781,-0.710938 -0.300782,-0.273437 -0.970704,-0.451172 l -0.881836,-0.232421 q -1.05957,-0.273438 -1.510742,-0.533204 -0.444336,-0.266601 -0.697265,-0.642578 -0.25293,-0.375976 -0.25293,-0.922851 0,-1.011719 0.717773,-1.5380862 0.72461,-0.5332031 2.105469,-0.5332031 1.223633,0 1.941406,0.4306641 0.72461,0.430664 0.916016,1.3808592 l -1.107422,0.136719 Q 97.378378,9.9433594 96.927206,9.6835938 96.48287,9.4169922 95.730917,9.4169922 q -0.833984,0 -1.230469,0.2529297 -0.396484,0.2529297 -0.396484,0.7656251 0,0.314453 0.164063,0.519531 0.164062,0.205078 0.485351,0.348633 0.321289,0.143555 1.353516,0.396484 0.977539,0.246094 1.408203,0.458008 0.430664,0.205078 0.676758,0.458008 0.252929,0.25293 0.389648,0.587891 0.136719,0.328125 0.136719,0.751953 z m 4.292968,1.989258 q -0.6084,0.164062 -1.24414,0.164062 -1.47656,0 -1.47656,-1.674805 V 9.4990234 H 99.435995 V 8.6035156 h 0.902345 l 0.3623,-1.6542969 h 0.82032 v 1.6542969 h 1.36718 v 0.8955078 h -1.36718 v 4.6689456 q 0,0.533203 0.17089,0.751953 0.17774,0.211914 0.6084,0.211914 0.2461,0 0.71094,-0.0957 z m 2.93262,0.191406 q -1.11426,0 -1.67481,-0.587891 -0.56054,-0.58789 -0.56054,-1.613281 0,-1.148438 0.75195,-1.763672 0.75879,-0.615234 2.44043,-0.65625 l 1.66113,-0.02734 v -0.40332 q 0,-0.902344 -0.38281,-1.2919922 -0.38281,-0.3896485 -1.20313,-0.3896485 -0.82714,0 -1.20312,0.2802735 -0.37598,0.2802734 -0.45117,0.8955082 l -1.28516,-0.116211 q 0.31445,-1.9960941 2.9668,-1.9960941 1.39453,0 2.09863,0.6425781 0.7041,0.6357422 0.7041,1.845703 v 3.185547 q 0,0.546875 0.14356,0.827148 0.14355,0.273438 0.54687,0.273438 0.17774,0 0.40332,-0.04785 v 0.765625 q -0.46484,0.109375 -0.95019,0.109375 -0.6836,0 -0.99805,-0.355468 -0.30762,-0.362305 -0.34863,-1.12793 h -0.041 q -0.47168,0.847656 -1.10058,1.203125 -0.62207,0.348633 -1.51758,0.348633 z m 0.28027,-0.922852 q 0.67676,0 1.20313,-0.307617 0.52636,-0.307617 0.82714,-0.84082 0.30762,-0.540039 0.30762,-1.107422 v -0.608399 l -1.34668,0.02734 q -0.86816,0.01367 -1.31933,0.177735 -0.44434,0.164062 -0.6836,0.505859 -0.23926,0.341797 -0.23926,0.895508 0,0.601562 0.32129,0.929687 0.32813,0.328125 0.92969,0.328125 z M 111.87057,16 v -5.673828 q 0,-0.779297 -0.041,-1.7226564 h 1.16211 q 0.0547,1.2578125 0.0547,1.5107424 h 0.0273 q 0.29395,-0.9501955 0.67676,-1.2988283 0.38281,-0.3486328 1.08008,-0.3486328 0.24609,0 0.49902,0.068359 v 1.1279296 q -0.24609,-0.068359 -0.65625,-0.068359 -0.76563,0 -1.16895,0.6630864 -0.40332,0.65625 -0.40332,1.886718 V 16 Z m 7.47851,-0.05469 q -0.6084,0.164062 -1.24414,0.164062 -1.47656,0 -1.47656,-1.674805 V 9.4990234 h -0.85449 V 8.6035156 h 0.90234 l 0.3623,-1.6542969 h 0.82032 v 1.6542969 h 1.36718 v 0.8955078 h -1.36718 v 4.6689456 q 0,0.533203 0.1709,0.751953 0.17773,0.211914 0.60839,0.211914 0.2461,0 0.71094,-0.0957 z"
       id="text14"
       clip-path="url(#clipPath4)"
       style="font-size:14px;font-family:sans-serif;fill:#ffffffff;stroke:none"
       aria-label="1 start" />
  </g>
  <g
     transform="translate(330,150)"
     id="g16">
    <path
       fill="none"
       d="M 189.5,20.5 H 10.5"
       clip-path="url(#clipPath4)"
       id="path15"
       style="stroke:#ffffffff" />
    <path
       fill="none"
       d="M 178.7417,14 190,20.5 178.7417,27"
       clip-path="url(#clipPath4)"
       id="path16"
       style="stroke:#ffffffff" />
    <path
       d="m 47.852088,8.3847656 1.804687,-0.7041015 0.307617,0.9023437 -1.927734,0.4990235 1.264648,1.7089847 -0.813476,0.492187 -1.025391,-1.7636717 -1.066406,1.7499997 -0.813477,-0.492187 1.291992,-1.6953127 -1.914062,-0.4990235 0.307617,-0.9160156 1.825195,0.7314453 -0.08203,-2.0302734 h 0.929688 z m 13.418945,3.9101564 q 0,1.941406 -0.854492,2.891601 -0.854493,0.950196 -2.481446,0.950196 -1.620117,0 -2.447265,-0.984375 -0.827149,-0.991211 -0.827149,-2.857422 0,-3.8281251 3.31543,-3.8281251 1.695312,0 2.495117,0.9365234 0.799805,0.9296877 0.799805,2.8916017 z m -1.291992,0 q 0,-1.53125 -0.458008,-2.22168 -0.451172,-0.6972654 -1.524414,-0.6972654 -1.080078,0 -1.56543,0.7109374 -0.478516,0.704102 -0.478516,2.208008 0,1.462891 0.47168,2.201172 0.478516,0.731445 1.49707,0.731445 1.107422,0 1.579102,-0.710937 0.478516,-0.710938 0.478516,-2.22168 z m 4.026367,-3.6914064 v 4.6894534 q 0,0.731445 0.143555,1.134765 0.143554,0.403321 0.458007,0.581055 0.314453,0.177734 0.922852,0.177734 0.888672,0 1.401367,-0.608398 0.512695,-0.608398 0.512695,-1.688477 V 8.6035156 h 1.230469 v 5.8173824 q 0,1.291993 0.04102,1.579102 h -1.16211 q -0.0068,-0.03418 -0.01367,-0.18457 -0.0068,-0.150391 -0.02051,-0.341797 -0.0068,-0.198242 -0.02051,-0.738281 h -0.02051 q -0.423828,0.765625 -0.984375,1.086914 -0.553711,0.314453 -1.380859,0.314453 -1.216797,0 -1.78418,-0.601563 -0.560547,-0.608398 -0.560547,-2.002929 V 8.6035156 Z m 9.426758,7.3417974 q -0.608399,0.164062 -1.244141,0.164062 -1.476562,0 -1.476562,-1.674805 V 9.4990234 H 69.85697 V 8.6035156 h 0.902344 l 0.362305,-1.6542969 h 0.820312 v 1.6542969 h 1.367188 v 0.8955078 h -1.367188 v 4.6689456 q 0,0.533203 0.170899,0.751953 0.177734,0.211914 0.608398,0.211914 0.246094,0 0.710938,-0.0957 z m 3.848632,2.95996 q -1.20996,0 -1.927734,-0.478515 -0.717773,-0.47168 -0.922851,-1.34668 l 1.237304,-0.177734 q 0.123047,0.512695 0.540039,0.786133 0.423828,0.280273 1.107422,0.280273 1.838867,0 1.838867,-2.15332 v -1.189453 h -0.01367 q -0.348632,0.710937 -0.957031,1.073242 -0.608398,0.355468 -1.421875,0.355468 -1.360351,0 -2.002929,-0.902343 Q 74.122595,14.25 74.122595,12.31543 q 0,-1.961914 0.683594,-2.8916019 0.69043,-0.9365234 2.091797,-0.9365234 0.786133,0 1.360352,0.3623047 0.581054,0.3554687 0.895507,1.0185547 h 0.01367 q 0,-0.2050782 0.02734,-0.7109375 0.02734,-0.5058594 0.05469,-0.553711 h 1.168946 q -0.04102,0.3691407 -0.04102,1.5312504 v 5.65332 q 0,3.117187 -3.09668,3.117187 z m 1.873047,-6.603515 q 0,-0.902344 -0.246093,-1.551758 -0.246094,-0.65625 -0.697266,-0.9980469 -0.444336,-0.3486328 -1.011719,-0.3486328 -0.943359,0 -1.374023,0.6835937 -0.430664,0.683594 -0.430664,2.214844 0,1.517578 0.40332,2.180664 0.40332,0.663086 1.380859,0.663086 0.581055,0 1.032227,-0.341797 0.451172,-0.341797 0.697266,-0.977539 0.246093,-0.642578 0.246093,-1.524414 z m 9.365235,-0.0068 q 0,1.941406 -0.854492,2.891601 -0.854493,0.950196 -2.481446,0.950196 -1.620117,0 -2.447265,-0.984375 -0.827149,-0.991211 -0.827149,-2.857422 0,-3.8281251 3.31543,-3.8281251 1.695312,0 2.495117,0.9365234 0.799805,0.9296877 0.799805,2.8916017 z m -1.291992,0 q 0,-1.53125 -0.458008,-2.22168 -0.451172,-0.6972654 -1.524414,-0.6972654 -1.080078,0 -1.56543,0.7109374 -0.478516,0.704102 -0.478516,2.208008 0,1.462891 0.47168,2.201172 0.478516,0.731445 1.49707,0.731445 1.107422,0 1.579102,-0.710937 0.478516,-0.710938 0.478516,-2.22168 z M 90.043494,7.03125 V 5.8554687 h 1.230469 V 7.03125 Z m 0,8.96875 V 8.6035156 h 1.230469 V 16 Z m 7.813476,0 v -4.689453 q 0,-0.731445 -0.143554,-1.134766 -0.143555,-0.4033201 -0.458008,-0.5810544 -0.314453,-0.1777344 -0.922852,-0.1777344 -0.888672,0 -1.401367,0.6083988 -0.512695,0.608398 -0.512695,1.688476 V 16 h -1.230469 v -5.817383 q 0,-1.291992 -0.04102,-1.5791014 h 1.16211 q 0.0068,0.03418 0.01367,0.1845703 0.0068,0.1503907 0.01367,0.3486329 0.01367,0.1914062 0.02734,0.7314453 h 0.02051 q 0.423828,-0.765625 0.977539,-1.0800782 0.560547,-0.321289 1.387695,-0.321289 1.216797,0 1.777344,0.6083984 0.567383,0.6015625 0.567383,1.9960937 V 16 Z m 5.89258,2.905273 q -1.20996,0 -1.92774,-0.478515 -0.71777,-0.47168 -0.92285,-1.34668 l 1.23731,-0.177734 q 0.12304,0.512695 0.54004,0.786133 0.42382,0.280273 1.10742,0.280273 1.83887,0 1.83887,-2.15332 v -1.189453 h -0.0137 q -0.34863,0.710937 -0.95703,1.073242 -0.6084,0.355468 -1.42187,0.355468 -1.36035,0 -2.00293,-0.902343 -0.63574,-0.902344 -0.63574,-2.836914 0,-1.961914 0.68359,-2.8916019 0.69043,-0.9365234 2.0918,-0.9365234 0.78613,0 1.36035,0.3623047 0.58105,0.3554687 0.89551,1.0185547 h 0.0137 q 0,-0.2050782 0.0273,-0.7109375 0.0273,-0.5058594 0.0547,-0.553711 h 1.16894 q -0.041,0.3691407 -0.041,1.5312504 v 5.65332 q 0,3.117187 -3.09668,3.117187 z m 1.87305,-6.603515 q 0,-0.902344 -0.2461,-1.551758 -0.24609,-0.65625 -0.69726,-0.9980469 -0.44434,-0.3486328 -1.01172,-0.3486328 -0.94336,0 -1.37403,0.6835937 -0.43066,0.683594 -0.43066,2.214844 0,1.517578 0.40332,2.180664 0.40332,0.663086 1.38086,0.663086 0.58105,0 1.03223,-0.341797 0.45117,-0.341797 0.69726,-0.977539 0.2461,-0.642578 0.2461,-1.524414 z M 108.93803,16 V 6.3681641 h 7.30761 v 1.0664062 h -6.00195 v 3.0898437 h 5.5918 v 1.052734 h -5.5918 v 3.356446 h 6.28223 V 16 Z m 13.80175,-1.189453 q -0.34179,0.710937 -0.90918,1.018555 -0.56054,0.307617 -1.39453,0.307617 -1.40137,0 -2.06445,-0.94336 -0.65625,-0.943359 -0.65625,-2.857421 0,-3.8691411 2.7207,-3.8691411 0.84082,0 1.40137,0.3076172 0.56055,0.3076172 0.90234,0.977539 h 0.0137 l -0.0137,-0.8271484 v -3.069336 h 1.23047 v 8.6201173 q 0,1.155273 0.041,1.524414 h -1.17578 q -0.0205,-0.109375 -0.0479,-0.505859 -0.0205,-0.396485 -0.0205,-0.683594 z m -3.73242,-2.515625 q 0,1.551758 0.41016,2.22168 0.41015,0.669921 1.33301,0.669921 1.04589,0 1.51757,-0.724609 0.47168,-0.724609 0.47168,-2.249023 0,-1.469727 -0.47168,-2.153321 -0.47168,-0.6835934 -1.5039,-0.6835934 -0.92969,0 -1.34668,0.6904294 -0.41016,0.683594 -0.41016,2.228516 z m 9.65234,6.610351 q -1.20996,0 -1.92773,-0.478515 -0.71777,-0.47168 -0.92285,-1.34668 l 1.2373,-0.177734 q 0.12305,0.512695 0.54004,0.786133 0.42383,0.280273 1.10742,0.280273 1.83887,0 1.83887,-2.15332 v -1.189453 h -0.0137 q -0.34863,0.710937 -0.95703,1.073242 -0.6084,0.355468 -1.42188,0.355468 -1.36035,0 -2.00293,-0.902343 Q 125.5015,14.25 125.5015,12.31543 q 0,-1.961914 0.6836,-2.8916019 0.69043,-0.9365234 2.09179,-0.9365234 0.78613,0 1.36035,0.3623047 0.58106,0.3554687 0.89551,1.0185547 h 0.0137 q 0,-0.2050782 0.0273,-0.7109375 0.0273,-0.5058594 0.0547,-0.553711 h 1.16895 q -0.041,0.3691407 -0.041,1.5312504 v 5.65332 q 0,3.117187 -3.09668,3.117187 z m 1.87305,-6.603515 q 0,-0.902344 -0.24609,-1.551758 -0.2461,-0.65625 -0.69727,-0.9980469 -0.44433,-0.3486328 -1.01172,-0.3486328 -0.94336,0 -1.37402,0.6835937 -0.43066,0.683594 -0.43066,2.214844 0,1.517578 0.40332,2.180664 0.40332,0.663086 1.38086,0.663086 0.58105,0 1.03222,-0.341797 0.45117,-0.341797 0.69727,-0.977539 0.24609,-0.642578 0.24609,-1.524414 z m 4.05371,0.259765 q 0,1.271485 0.52637,1.961915 0.52637,0.690429 1.53809,0.690429 0.7998,0 1.27832,-0.321289 0.48535,-0.321289 0.65625,-0.813476 l 1.08007,0.307617 q -0.66308,1.75 -3.01464,1.75 -1.64063,0 -2.50196,-0.977539 -0.85449,-0.977539 -0.85449,-2.905274 0,-1.832031 0.85449,-2.8095701 0.86133,-0.977539 2.4541,-0.977539 3.26075,0 3.26075,3.9306641 v 0.164062 z m 4.00586,-0.943359 q -0.10254,-1.168945 -0.59472,-1.7021484 -0.49219,-0.540039 -1.41504,-0.540039 -0.89551,0 -1.42188,0.6015625 -0.51953,0.5947269 -0.56055,1.6406249 z m 8.3877,2.337891 q 0,1.045898 -0.79297,1.613281 -0.78613,0.567383 -2.20801,0.567383 -1.38086,0 -2.13281,-0.451172 -0.74512,-0.458008 -0.97071,-1.421875 l 1.08692,-0.211914 q 0.15723,0.594726 0.64941,0.875 0.49219,0.273437 1.36719,0.273437 0.93652,0 1.36719,-0.287109 0.4375,-0.287109 0.4375,-0.861328 0,-0.4375 -0.30078,-0.710938 -0.30078,-0.273437 -0.97071,-0.451172 l -0.88183,-0.232421 q -1.05957,-0.273438 -1.51074,-0.533204 -0.44434,-0.266601 -0.69727,-0.642578 -0.25293,-0.375976 -0.25293,-0.922851 0,-1.011719 0.71777,-1.5380862 0.72461,-0.5332031 2.10547,-0.5332031 1.22364,0 1.94141,0.4306641 0.72461,0.430664 0.91601,1.3808592 l -1.10742,0.136719 q -0.10254,-0.4921876 -0.55371,-0.7519532 -0.44433,-0.2666016 -1.19629,-0.2666016 -0.83398,0 -1.23047,0.2529297 -0.39648,0.2529297 -0.39648,0.7656251 0,0.314453 0.16406,0.519531 0.16406,0.205078 0.48535,0.348633 0.32129,0.143555 1.35352,0.396484 0.97754,0.246094 1.4082,0.458008 0.43067,0.205078 0.67676,0.458008 0.25293,0.25293 0.38965,0.587891 0.13672,0.328125 0.13672,0.751953 z m 1.5039,4.949218 V 5.8554687 h 2.78223 v 0.881836 h -1.59277 V 18.023437 h 1.59277 v 0.881836 z m 3.00098,0 v -0.881836 h 1.59277 V 6.7373047 h -1.59277 v -0.881836 h 2.78223 V 18.905273 Z"
       id="text16"
       clip-path="url(#clipPath4)"
       style="font-size:14px;font-family:sans-serif;fill:#ffffffff;stroke:none"
       aria-label="* outgoingEdges[]" />
  </g>
</svg>
